<svg xmlns="http://www.w3.org/2000/svg" xmlns:xlink="http://www.w3.org/1999/xlink" width="500" zoomAndPan="magnify" viewBox="0 0 375 374.999991" height="500" preserveAspectRatio="xMidYMid meet" version="1.0"><defs><g/><linearGradient x1="0" gradientTransform="matrix(0.75, 0, 0, 0.75, 0.0000045, 0)" y1="0" x2="499.999979" gradientUnits="userSpaceOnUse" y2="0" id="7e29d55bd0"><stop stop-opacity="1" stop-color="rgb(80.39856%, 100%, 84.698486%)" offset="0"/><stop stop-opacity="1" stop-color="rgb(80.311584%, 99.891663%, 84.757996%)" offset="0.0078125"/><stop stop-opacity="1" stop-color="rgb(80.136108%, 99.676514%, 84.87854%)" offset="0.015625"/><stop stop-opacity="1" stop-color="rgb(79.960632%, 99.461365%, 84.997559%)" offset="0.0234375"/><stop stop-opacity="1" stop-color="rgb(79.786682%, 99.246216%, 85.116577%)" offset="0.03125"/><stop stop-opacity="1" stop-color="rgb(79.611206%, 99.032593%, 85.237122%)" offset="0.0390625"/><stop stop-opacity="1" stop-color="rgb(79.43573%, 98.817444%, 85.35614%)" offset="0.046875"/><stop stop-opacity="1" stop-color="rgb(79.26178%, 98.602295%, 85.476685%)" offset="0.0546875"/><stop stop-opacity="1" stop-color="rgb(79.086304%, 98.387146%, 85.595703%)" offset="0.0625"/><stop stop-opacity="1" stop-color="rgb(78.910828%, 98.171997%, 85.714722%)" offset="0.0703125"/><stop stop-opacity="1" stop-color="rgb(78.736877%, 97.958374%, 85.835266%)" offset="0.078125"/><stop stop-opacity="1" stop-color="rgb(78.561401%, 97.743225%, 85.954285%)" offset="0.0859375"/><stop stop-opacity="1" stop-color="rgb(78.385925%, 97.528076%, 86.073303%)" offset="0.09375"/><stop stop-opacity="1" stop-color="rgb(78.211975%, 97.312927%, 86.193848%)" offset="0.101562"/><stop stop-opacity="1" stop-color="rgb(78.036499%, 97.097778%, 86.312866%)" offset="0.109375"/><stop stop-opacity="1" stop-color="rgb(77.861023%, 96.884155%, 86.431885%)" offset="0.117188"/><stop stop-opacity="1" stop-color="rgb(77.685547%, 96.669006%, 86.552429%)" offset="0.125"/><stop stop-opacity="1" stop-color="rgb(77.511597%, 96.453857%, 86.671448%)" offset="0.132812"/><stop stop-opacity="1" stop-color="rgb(77.336121%, 96.238708%, 86.790466%)" offset="0.140625"/><stop stop-opacity="1" stop-color="rgb(77.160645%, 96.02356%, 86.911011%)" offset="0.148437"/><stop stop-opacity="1" stop-color="rgb(76.986694%, 95.809937%, 87.030029%)" offset="0.15625"/><stop stop-opacity="1" stop-color="rgb(76.811218%, 95.594788%, 87.149048%)" offset="0.164062"/><stop stop-opacity="1" stop-color="rgb(76.635742%, 95.379639%, 87.269592%)" offset="0.171875"/><stop stop-opacity="1" stop-color="rgb(76.461792%, 95.16449%, 87.388611%)" offset="0.179687"/><stop stop-opacity="1" stop-color="rgb(76.286316%, 94.949341%, 87.507629%)" offset="0.1875"/><stop stop-opacity="1" stop-color="rgb(76.11084%, 94.735718%, 87.628174%)" offset="0.195312"/><stop stop-opacity="1" stop-color="rgb(75.93689%, 94.520569%, 87.747192%)" offset="0.203125"/><stop stop-opacity="1" stop-color="rgb(75.761414%, 94.30542%, 87.866211%)" offset="0.210938"/><stop stop-opacity="1" stop-color="rgb(75.585938%, 94.090271%, 87.986755%)" offset="0.21875"/><stop stop-opacity="1" stop-color="rgb(75.410461%, 93.875122%, 88.105774%)" offset="0.226562"/><stop stop-opacity="1" stop-color="rgb(75.236511%, 93.661499%, 88.224792%)" offset="0.234375"/><stop stop-opacity="1" stop-color="rgb(75.061035%, 93.44635%, 88.345337%)" offset="0.242188"/><stop stop-opacity="1" stop-color="rgb(74.885559%, 93.231201%, 88.464355%)" offset="0.25"/><stop stop-opacity="1" stop-color="rgb(74.711609%, 93.016052%, 88.583374%)" offset="0.257812"/><stop stop-opacity="1" stop-color="rgb(74.536133%, 92.800903%, 88.703918%)" offset="0.265625"/><stop stop-opacity="1" stop-color="rgb(74.360657%, 92.58728%, 88.822937%)" offset="0.273437"/><stop stop-opacity="1" stop-color="rgb(74.186707%, 92.372131%, 88.941956%)" offset="0.28125"/><stop stop-opacity="1" stop-color="rgb(74.01123%, 92.156982%, 89.0625%)" offset="0.289062"/><stop stop-opacity="1" stop-color="rgb(73.835754%, 91.941833%, 89.181519%)" offset="0.296875"/><stop stop-opacity="1" stop-color="rgb(73.661804%, 91.726685%, 89.300537%)" offset="0.304687"/><stop stop-opacity="1" stop-color="rgb(73.486328%, 91.513062%, 89.421082%)" offset="0.3125"/><stop stop-opacity="1" stop-color="rgb(73.310852%, 91.297913%, 89.5401%)" offset="0.320312"/><stop stop-opacity="1" stop-color="rgb(73.136902%, 91.082764%, 89.659119%)" offset="0.328125"/><stop stop-opacity="1" stop-color="rgb(72.961426%, 90.867615%, 89.779663%)" offset="0.335937"/><stop stop-opacity="1" stop-color="rgb(72.78595%, 90.652466%, 89.898682%)" offset="0.34375"/><stop stop-opacity="1" stop-color="rgb(72.610474%, 90.438843%, 90.0177%)" offset="0.351562"/><stop stop-opacity="1" stop-color="rgb(72.436523%, 90.223694%, 90.138245%)" offset="0.359375"/><stop stop-opacity="1" stop-color="rgb(72.261047%, 90.008545%, 90.257263%)" offset="0.367187"/><stop stop-opacity="1" stop-color="rgb(72.085571%, 89.793396%, 90.376282%)" offset="0.375"/><stop stop-opacity="1" stop-color="rgb(71.911621%, 89.578247%, 90.496826%)" offset="0.382812"/><stop stop-opacity="1" stop-color="rgb(71.736145%, 89.364624%, 90.615845%)" offset="0.390625"/><stop stop-opacity="1" stop-color="rgb(71.560669%, 89.149475%, 90.734863%)" offset="0.398438"/><stop stop-opacity="1" stop-color="rgb(71.386719%, 88.934326%, 90.855408%)" offset="0.40625"/><stop stop-opacity="1" stop-color="rgb(71.211243%, 88.719177%, 90.974426%)" offset="0.414062"/><stop stop-opacity="1" stop-color="rgb(71.035767%, 88.504028%, 91.093445%)" offset="0.421875"/><stop stop-opacity="1" stop-color="rgb(70.861816%, 88.290405%, 91.213989%)" offset="0.429688"/><stop stop-opacity="1" stop-color="rgb(70.68634%, 88.075256%, 91.333008%)" offset="0.4375"/><stop stop-opacity="1" stop-color="rgb(70.510864%, 87.860107%, 91.452026%)" offset="0.445312"/><stop stop-opacity="1" stop-color="rgb(70.336914%, 87.644958%, 91.572571%)" offset="0.453125"/><stop stop-opacity="1" stop-color="rgb(70.161438%, 87.42981%, 91.691589%)" offset="0.460938"/><stop stop-opacity="1" stop-color="rgb(69.985962%, 87.216187%, 91.810608%)" offset="0.46875"/><stop stop-opacity="1" stop-color="rgb(69.810486%, 87.001038%, 91.931152%)" offset="0.476562"/><stop stop-opacity="1" stop-color="rgb(69.636536%, 86.785889%, 92.050171%)" offset="0.484375"/><stop stop-opacity="1" stop-color="rgb(69.46106%, 86.57074%, 92.169189%)" offset="0.492188"/><stop stop-opacity="1" stop-color="rgb(69.285583%, 86.355591%, 92.289734%)" offset="0.5"/><stop stop-opacity="1" stop-color="rgb(69.111633%, 86.141968%, 92.408752%)" offset="0.507812"/><stop stop-opacity="1" stop-color="rgb(68.936157%, 85.926819%, 92.527771%)" offset="0.515625"/><stop stop-opacity="1" stop-color="rgb(68.760681%, 85.71167%, 92.648315%)" offset="0.523437"/><stop stop-opacity="1" stop-color="rgb(68.586731%, 85.496521%, 92.767334%)" offset="0.53125"/><stop stop-opacity="1" stop-color="rgb(68.411255%, 85.281372%, 92.886353%)" offset="0.539062"/><stop stop-opacity="1" stop-color="rgb(68.235779%, 85.067749%, 93.006897%)" offset="0.546875"/><stop stop-opacity="1" stop-color="rgb(68.061829%, 84.8526%, 93.125916%)" offset="0.554687"/><stop stop-opacity="1" stop-color="rgb(67.886353%, 84.637451%, 93.244934%)" offset="0.5625"/><stop stop-opacity="1" stop-color="rgb(67.710876%, 84.422302%, 93.365479%)" offset="0.570312"/><stop stop-opacity="1" stop-color="rgb(67.536926%, 84.207153%, 93.484497%)" offset="0.578125"/><stop stop-opacity="1" stop-color="rgb(67.36145%, 83.99353%, 93.603516%)" offset="0.585937"/><stop stop-opacity="1" stop-color="rgb(67.185974%, 83.778381%, 93.72406%)" offset="0.59375"/><stop stop-opacity="1" stop-color="rgb(67.010498%, 83.563232%, 93.843079%)" offset="0.601562"/><stop stop-opacity="1" stop-color="rgb(66.836548%, 83.348083%, 93.962097%)" offset="0.609375"/><stop stop-opacity="1" stop-color="rgb(66.661072%, 83.132935%, 94.082642%)" offset="0.617187"/><stop stop-opacity="1" stop-color="rgb(66.485596%, 82.919312%, 94.20166%)" offset="0.625"/><stop stop-opacity="1" stop-color="rgb(66.311646%, 82.704163%, 94.320679%)" offset="0.632812"/><stop stop-opacity="1" stop-color="rgb(66.136169%, 82.489014%, 94.441223%)" offset="0.640625"/><stop stop-opacity="1" stop-color="rgb(65.960693%, 82.273865%, 94.560242%)" offset="0.648437"/><stop stop-opacity="1" stop-color="rgb(65.786743%, 82.058716%, 94.67926%)" offset="0.65625"/><stop stop-opacity="1" stop-color="rgb(65.611267%, 81.845093%, 94.799805%)" offset="0.664062"/><stop stop-opacity="1" stop-color="rgb(65.435791%, 81.629944%, 94.918823%)" offset="0.671875"/><stop stop-opacity="1" stop-color="rgb(65.261841%, 81.414795%, 95.037842%)" offset="0.679687"/><stop stop-opacity="1" stop-color="rgb(65.086365%, 81.199646%, 95.158386%)" offset="0.6875"/><stop stop-opacity="1" stop-color="rgb(64.910889%, 80.984497%, 95.277405%)" offset="0.695312"/><stop stop-opacity="1" stop-color="rgb(64.736938%, 80.770874%, 95.396423%)" offset="0.703125"/><stop stop-opacity="1" stop-color="rgb(64.561462%, 80.555725%, 95.516968%)" offset="0.710937"/><stop stop-opacity="1" stop-color="rgb(64.385986%, 80.340576%, 95.635986%)" offset="0.71875"/><stop stop-opacity="1" stop-color="rgb(64.21051%, 80.125427%, 95.755005%)" offset="0.726562"/><stop stop-opacity="1" stop-color="rgb(64.03656%, 79.910278%, 95.875549%)" offset="0.734375"/><stop stop-opacity="1" stop-color="rgb(63.861084%, 79.696655%, 95.994568%)" offset="0.742187"/><stop stop-opacity="1" stop-color="rgb(63.685608%, 79.481506%, 96.113586%)" offset="0.75"/><stop stop-opacity="1" stop-color="rgb(63.511658%, 79.266357%, 96.234131%)" offset="0.757812"/><stop stop-opacity="1" stop-color="rgb(63.336182%, 79.051208%, 96.353149%)" offset="0.765625"/><stop stop-opacity="1" stop-color="rgb(63.160706%, 78.83606%, 96.472168%)" offset="0.773438"/><stop stop-opacity="1" stop-color="rgb(62.986755%, 78.622437%, 96.592712%)" offset="0.78125"/><stop stop-opacity="1" stop-color="rgb(62.811279%, 78.407288%, 96.711731%)" offset="0.789062"/><stop stop-opacity="1" stop-color="rgb(62.635803%, 78.192139%, 96.83075%)" offset="0.796875"/><stop stop-opacity="1" stop-color="rgb(62.461853%, 77.97699%, 96.951294%)" offset="0.804688"/><stop stop-opacity="1" stop-color="rgb(62.286377%, 77.761841%, 97.070312%)" offset="0.8125"/><stop stop-opacity="1" stop-color="rgb(62.110901%, 77.548218%, 97.189331%)" offset="0.820312"/><stop stop-opacity="1" stop-color="rgb(61.936951%, 77.333069%, 97.309875%)" offset="0.828125"/><stop stop-opacity="1" stop-color="rgb(61.761475%, 77.11792%, 97.428894%)" offset="0.835938"/><stop stop-opacity="1" stop-color="rgb(61.585999%, 76.902771%, 97.547913%)" offset="0.84375"/><stop stop-opacity="1" stop-color="rgb(61.410522%, 76.687622%, 97.668457%)" offset="0.851562"/><stop stop-opacity="1" stop-color="rgb(61.236572%, 76.473999%, 97.787476%)" offset="0.859375"/><stop stop-opacity="1" stop-color="rgb(61.061096%, 76.25885%, 97.906494%)" offset="0.867188"/><stop stop-opacity="1" stop-color="rgb(60.88562%, 76.043701%, 98.027039%)" offset="0.875"/><stop stop-opacity="1" stop-color="rgb(60.71167%, 75.828552%, 98.146057%)" offset="0.882812"/><stop stop-opacity="1" stop-color="rgb(60.536194%, 75.613403%, 98.265076%)" offset="0.890625"/><stop stop-opacity="1" stop-color="rgb(60.360718%, 75.39978%, 98.38562%)" offset="0.898438"/><stop stop-opacity="1" stop-color="rgb(60.186768%, 75.184631%, 98.504639%)" offset="0.90625"/><stop stop-opacity="1" stop-color="rgb(60.011292%, 74.969482%, 98.623657%)" offset="0.914062"/><stop stop-opacity="1" stop-color="rgb(59.835815%, 74.754333%, 98.744202%)" offset="0.921875"/><stop stop-opacity="1" stop-color="rgb(59.661865%, 74.539185%, 98.86322%)" offset="0.929688"/><stop stop-opacity="1" stop-color="rgb(59.486389%, 74.325562%, 98.982239%)" offset="0.9375"/><stop stop-opacity="1" stop-color="rgb(59.310913%, 74.110413%, 99.102783%)" offset="0.945312"/><stop stop-opacity="1" stop-color="rgb(59.136963%, 73.895264%, 99.221802%)" offset="0.953125"/><stop stop-opacity="1" stop-color="rgb(58.961487%, 73.680115%, 99.34082%)" offset="0.960938"/><stop stop-opacity="1" stop-color="rgb(58.786011%, 73.464966%, 99.461365%)" offset="0.96875"/><stop stop-opacity="1" stop-color="rgb(58.610535%, 73.251343%, 99.580383%)" offset="0.976562"/><stop stop-opacity="1" stop-color="rgb(58.436584%, 73.036194%, 99.699402%)" offset="0.984375"/><stop stop-opacity="1" stop-color="rgb(58.261108%, 72.821045%, 99.819946%)" offset="0.992188"/><stop stop-opacity="1" stop-color="rgb(58.085632%, 72.605896%, 99.938965%)" offset="1"/></linearGradient><clipPath id="10267d2f5a"><path d="M 24.171875 204.121094 L 45.921875 204.121094 L 45.921875 225.871094 L 24.171875 225.871094 Z M 24.171875 204.121094 " clip-rule="nonzero"/></clipPath><clipPath id="8b29e921e8"><path d="M 49.777344 224.703125 L 64.777344 224.703125 L 64.777344 239.703125 L 49.777344 239.703125 Z M 49.777344 224.703125 " clip-rule="nonzero"/></clipPath><clipPath id="91f8592669"><path d="M 281.109375 125.25 L 302.859375 125.25 L 302.859375 147 L 281.109375 147 Z M 281.109375 125.25 " clip-rule="nonzero"/></clipPath><clipPath id="3dd5ccc055"><path d="M 270 110.472656 L 284.886719 110.472656 L 284.886719 125.472656 L 270 125.472656 Z M 270 110.472656 " clip-rule="nonzero"/></clipPath><clipPath id="1a1142c140"><path d="M 216.078125 136.066406 L 227.328125 136.066406 L 227.328125 147.316406 L 216.078125 147.316406 Z M 216.078125 136.066406 " clip-rule="nonzero"/></clipPath><clipPath id="d7ef69a687"><path d="M 331.519531 170.484375 L 346.519531 170.484375 L 346.519531 185.484375 L 331.519531 185.484375 Z M 331.519531 170.484375 " clip-rule="nonzero"/></clipPath><clipPath id="2abcacb867"><path d="M 309.289062 237.652344 L 324.289062 237.652344 L 324.289062 252.652344 L 309.289062 252.652344 Z M 309.289062 237.652344 " clip-rule="nonzero"/></clipPath><clipPath id="348f1d89e5"><path d="M 104.714844 126.105469 L 119.714844 126.105469 L 119.714844 141 L 104.714844 141 Z M 104.714844 126.105469 " clip-rule="nonzero"/></clipPath></defs><rect x="-37.5" fill="url(#7e29d55bd0)" width="450" y="-37.499999" height="449.999989"/><g fill="#c88b85" fill-opacity="1"><g transform="translate(109.611822, 188.531457)"><g><path d="M 16.5 -32.210938 C 14.917969 -32.210938 13.398438 -31.949219 12.011719 -31.484375 C 12.210938 -34.257812 12.542969 -37.097656 13.003906 -39.738281 C 13.136719 -40.59375 13.730469 -41.714844 12.34375 -41.386719 C 9.902344 -40.925781 6.996094 -36.566406 0.660156 -36.566406 C 0 -36.566406 -0.265625 -35.777344 0.394531 -35.246094 C 2.707031 -33.53125 3.101562 -32.078125 3.101562 -29.636719 L 3.101562 -14.785156 C 3.101562 -12.34375 2.707031 -10.890625 0.394531 -9.175781 C -0.265625 -8.648438 0 -7.789062 0.660156 -7.789062 L 16.5 -7.789062 C 23.761719 -7.789062 29.703125 -13.265625 29.703125 -20 C 29.703125 -26.734375 23.761719 -32.210938 16.5 -32.210938 Z M 16.5 -9.636719 C 14.390625 -9.636719 12.671875 -14.324219 12.671875 -20 C 12.671875 -25.742188 14.390625 -30.363281 16.5 -30.363281 C 18.613281 -30.363281 20.332031 -25.742188 20.332031 -20 C 20.332031 -14.324219 18.613281 -9.636719 16.5 -9.636719 Z M 16.5 -9.636719 "/></g></g></g><g fill="#c88b85" fill-opacity="1"><g transform="translate(140.301706, 188.531457)"><g><path d="M 23.5 -15.378906 C 21.652344 -12.9375 17.625 -12.078125 15.183594 -12.738281 C 12.542969 -13.53125 11.089844 -15.378906 10.429688 -17.558594 C 11.816406 -16.964844 13.332031 -16.566406 15.050781 -16.566406 C 20.199219 -16.566406 24.421875 -20.066406 24.421875 -24.355469 C 24.421875 -28.714844 18.878906 -32.210938 13.730469 -32.210938 C 5.808594 -32.210938 0 -26.734375 0 -20 C 0 -13.265625 5.875 -7.789062 13.203125 -7.789062 C 18.285156 -7.789062 22.707031 -10.496094 24.886719 -14.390625 C 25.28125 -15.117188 24.160156 -16.238281 23.5 -15.378906 Z M 13.398438 -30.363281 C 15.183594 -30.363281 16.4375 -27.65625 16.4375 -24.355469 C 16.4375 -21.121094 15.183594 -18.417969 13.398438 -18.417969 C 11.816406 -18.417969 10.164062 -20.59375 10.164062 -24.09375 C 10.164062 -28.316406 12.34375 -30.363281 13.398438 -30.363281 Z M 13.398438 -30.363281 "/></g></g></g><g fill="#c88b85" fill-opacity="1"><g transform="translate(165.975589, 188.531457)"><g><path d="M 26.46875 -9.175781 C 24.160156 -10.890625 23.761719 -12.34375 23.761719 -14.785156 L 23.761719 -20.199219 C 23.761719 -27.328125 18.417969 -32.210938 11.351562 -32.210938 C 5.28125 -32.210938 1.980469 -29.175781 1.980469 -26.335938 C 1.980469 -22.507812 11.882812 -23.828125 10.496094 -27.0625 C 9.703125 -28.777344 9.703125 -30.363281 10.691406 -30.363281 C 13.070312 -30.363281 14.523438 -26.007812 14.523438 -22.179688 L 14.523438 -20.199219 C 13.070312 -22.113281 10.691406 -23.367188 8.054688 -23.367188 C 3.628906 -23.367188 0 -19.867188 0 -15.578125 C 0 -11.289062 3.628906 -7.789062 8.054688 -7.789062 C 10.691406 -7.789062 13.070312 -9.042969 14.523438 -10.957031 C 14.523438 -10.957031 15.90625 -7.789062 19.472656 -7.789062 L 26.203125 -7.789062 C 26.929688 -7.789062 27.128906 -8.648438 26.46875 -9.175781 Z M 10.957031 -11.351562 C 9.175781 -11.351562 7.722656 -13.265625 7.722656 -15.578125 C 7.722656 -17.886719 9.175781 -19.800781 10.957031 -19.800781 C 12.804688 -19.800781 14.257812 -17.886719 14.257812 -15.578125 C 14.257812 -13.265625 12.804688 -11.351562 10.957031 -11.351562 Z M 10.957031 -11.351562 "/></g></g></g><g fill="#c88b85" fill-opacity="1"><g transform="translate(193.629474, 188.531457)"><g><path d="M 32.078125 -9.175781 C 29.769531 -10.890625 29.375 -12.34375 29.375 -14.785156 L 29.375 -19.140625 C 29.375 -26.402344 24.820312 -32.210938 17.691406 -32.210938 C 15.578125 -32.210938 13.863281 -30.824219 12.542969 -29.109375 L 12.738281 -30.496094 C 12.871094 -31.355469 13.53125 -32.410156 12.144531 -32.144531 C 9.636719 -31.617188 6.996094 -27.328125 0.660156 -27.328125 C 0 -27.328125 -0.265625 -26.535156 0.394531 -26.007812 C 2.707031 -24.226562 3.101562 -22.773438 3.101562 -20.332031 L 3.101562 -14.785156 C 3.101562 -12.34375 2.707031 -10.890625 0.394531 -9.175781 C -0.265625 -8.648438 0 -7.789062 0.660156 -7.789062 L 13.53125 -7.789062 C 14.917969 -7.789062 14.917969 -8.910156 14.191406 -9.4375 C 12.210938 -10.957031 11.289062 -16.304688 12.011719 -24.6875 C 13.136719 -27.195312 14.457031 -29.175781 15.777344 -29.175781 C 20.332031 -29.175781 22.246094 -13.265625 18.019531 -9.4375 C 17.359375 -8.84375 17.292969 -7.789062 18.679688 -7.789062 L 31.816406 -7.789062 C 32.476562 -7.789062 32.738281 -8.648438 32.078125 -9.175781 Z M 32.078125 -9.175781 "/></g></g></g><g fill="#c88b85" fill-opacity="1"><g transform="translate(226.959359, 188.531457)"><g><path d="M 13.53125 -7.789062 C 14.917969 -7.789062 14.917969 -8.910156 14.191406 -9.4375 C 11.75 -11.289062 10.957031 -18.746094 12.738281 -30.496094 C 12.871094 -31.355469 13.53125 -32.410156 12.144531 -32.144531 C 9.636719 -31.617188 6.996094 -27.328125 0.660156 -27.328125 C 0 -27.328125 -0.265625 -26.535156 0.394531 -26.007812 C 2.707031 -24.226562 3.101562 -22.773438 3.101562 -20.332031 L 3.101562 -14.785156 C 3.101562 -12.34375 2.707031 -10.890625 0.394531 -9.175781 C -0.265625 -8.648438 0 -7.789062 0.660156 -7.789062 Z M 4.949219 -31.75 C 7.65625 -31.75 10.296875 -33.929688 10.890625 -36.566406 C 11.484375 -39.273438 9.769531 -41.386719 7.128906 -41.386719 C 4.421875 -41.386719 1.78125 -39.273438 1.1875 -36.566406 C 0.59375 -33.929688 2.308594 -31.75 4.949219 -31.75 Z M 4.949219 -31.75 "/></g></g></g><g fill="#c88b85" fill-opacity="1"><g transform="translate(242.601223, 188.531457)"><g><path d="M 23.5 -15.378906 C 21.652344 -12.9375 17.625 -12.078125 15.183594 -12.738281 C 12.542969 -13.53125 11.089844 -15.378906 10.429688 -17.558594 C 11.816406 -16.964844 13.332031 -16.566406 15.050781 -16.566406 C 20.199219 -16.566406 24.421875 -20.066406 24.421875 -24.355469 C 24.421875 -28.714844 18.878906 -32.210938 13.730469 -32.210938 C 5.808594 -32.210938 0 -26.734375 0 -20 C 0 -13.265625 5.875 -7.789062 13.203125 -7.789062 C 18.285156 -7.789062 22.707031 -10.496094 24.886719 -14.390625 C 25.28125 -15.117188 24.160156 -16.238281 23.5 -15.378906 Z M 13.398438 -30.363281 C 15.183594 -30.363281 16.4375 -27.65625 16.4375 -24.355469 C 16.4375 -21.121094 15.183594 -18.417969 13.398438 -18.417969 C 11.816406 -18.417969 10.164062 -20.59375 10.164062 -24.09375 C 10.164062 -28.316406 12.34375 -30.363281 13.398438 -30.363281 Z M 13.398438 -30.363281 "/></g></g></g><g fill="#fbfaf9" fill-opacity="1"><g transform="translate(107.825273, 187.499988)"><g><path d="M 16.5 -32.210938 C 14.917969 -32.210938 13.398438 -31.949219 12.011719 -31.484375 C 12.210938 -34.257812 12.542969 -37.097656 13.003906 -39.738281 C 13.136719 -40.59375 13.730469 -41.714844 12.34375 -41.386719 C 9.902344 -40.925781 6.996094 -36.566406 0.660156 -36.566406 C 0 -36.566406 -0.265625 -35.777344 0.394531 -35.246094 C 2.707031 -33.53125 3.101562 -32.078125 3.101562 -29.636719 L 3.101562 -14.785156 C 3.101562 -12.34375 2.707031 -10.890625 0.394531 -9.175781 C -0.265625 -8.648438 0 -7.789062 0.660156 -7.789062 L 16.5 -7.789062 C 23.761719 -7.789062 29.703125 -13.265625 29.703125 -20 C 29.703125 -26.734375 23.761719 -32.210938 16.5 -32.210938 Z M 16.5 -9.636719 C 14.390625 -9.636719 12.671875 -14.324219 12.671875 -20 C 12.671875 -25.742188 14.390625 -30.363281 16.5 -30.363281 C 18.613281 -30.363281 20.332031 -25.742188 20.332031 -20 C 20.332031 -14.324219 18.613281 -9.636719 16.5 -9.636719 Z M 16.5 -9.636719 "/></g></g></g><g fill="#fbfaf9" fill-opacity="1"><g transform="translate(138.515158, 187.499988)"><g><path d="M 23.5 -15.378906 C 21.652344 -12.9375 17.625 -12.078125 15.183594 -12.738281 C 12.542969 -13.53125 11.089844 -15.378906 10.429688 -17.558594 C 11.816406 -16.964844 13.332031 -16.566406 15.050781 -16.566406 C 20.199219 -16.566406 24.421875 -20.066406 24.421875 -24.355469 C 24.421875 -28.714844 18.878906 -32.210938 13.730469 -32.210938 C 5.808594 -32.210938 0 -26.734375 0 -20 C 0 -13.265625 5.875 -7.789062 13.203125 -7.789062 C 18.285156 -7.789062 22.707031 -10.496094 24.886719 -14.390625 C 25.28125 -15.117188 24.160156 -16.238281 23.5 -15.378906 Z M 13.398438 -30.363281 C 15.183594 -30.363281 16.4375 -27.65625 16.4375 -24.355469 C 16.4375 -21.121094 15.183594 -18.417969 13.398438 -18.417969 C 11.816406 -18.417969 10.164062 -20.59375 10.164062 -24.09375 C 10.164062 -28.316406 12.34375 -30.363281 13.398438 -30.363281 Z M 13.398438 -30.363281 "/></g></g></g><g fill="#fbfaf9" fill-opacity="1"><g transform="translate(164.18904, 187.499988)"><g><path d="M 26.46875 -9.175781 C 24.160156 -10.890625 23.761719 -12.34375 23.761719 -14.785156 L 23.761719 -20.199219 C 23.761719 -27.328125 18.417969 -32.210938 11.351562 -32.210938 C 5.28125 -32.210938 1.980469 -29.175781 1.980469 -26.335938 C 1.980469 -22.507812 11.882812 -23.828125 10.496094 -27.0625 C 9.703125 -28.777344 9.703125 -30.363281 10.691406 -30.363281 C 13.070312 -30.363281 14.523438 -26.007812 14.523438 -22.179688 L 14.523438 -20.199219 C 13.070312 -22.113281 10.691406 -23.367188 8.054688 -23.367188 C 3.628906 -23.367188 0 -19.867188 0 -15.578125 C 0 -11.289062 3.628906 -7.789062 8.054688 -7.789062 C 10.691406 -7.789062 13.070312 -9.042969 14.523438 -10.957031 C 14.523438 -10.957031 15.90625 -7.789062 19.472656 -7.789062 L 26.203125 -7.789062 C 26.929688 -7.789062 27.128906 -8.648438 26.46875 -9.175781 Z M 10.957031 -11.351562 C 9.175781 -11.351562 7.722656 -13.265625 7.722656 -15.578125 C 7.722656 -17.886719 9.175781 -19.800781 10.957031 -19.800781 C 12.804688 -19.800781 14.257812 -17.886719 14.257812 -15.578125 C 14.257812 -13.265625 12.804688 -11.351562 10.957031 -11.351562 Z M 10.957031 -11.351562 "/></g></g></g><g fill="#fbfaf9" fill-opacity="1"><g transform="translate(191.842925, 187.499988)"><g><path d="M 32.078125 -9.175781 C 29.769531 -10.890625 29.375 -12.34375 29.375 -14.785156 L 29.375 -19.140625 C 29.375 -26.402344 24.820312 -32.210938 17.691406 -32.210938 C 15.578125 -32.210938 13.863281 -30.824219 12.542969 -29.109375 L 12.738281 -30.496094 C 12.871094 -31.355469 13.53125 -32.410156 12.144531 -32.144531 C 9.636719 -31.617188 6.996094 -27.328125 0.660156 -27.328125 C 0 -27.328125 -0.265625 -26.535156 0.394531 -26.007812 C 2.707031 -24.226562 3.101562 -22.773438 3.101562 -20.332031 L 3.101562 -14.785156 C 3.101562 -12.34375 2.707031 -10.890625 0.394531 -9.175781 C -0.265625 -8.648438 0 -7.789062 0.660156 -7.789062 L 13.53125 -7.789062 C 14.917969 -7.789062 14.917969 -8.910156 14.191406 -9.4375 C 12.210938 -10.957031 11.289062 -16.304688 12.011719 -24.6875 C 13.136719 -27.195312 14.457031 -29.175781 15.777344 -29.175781 C 20.332031 -29.175781 22.246094 -13.265625 18.019531 -9.4375 C 17.359375 -8.84375 17.292969 -7.789062 18.679688 -7.789062 L 31.816406 -7.789062 C 32.476562 -7.789062 32.738281 -8.648438 32.078125 -9.175781 Z M 32.078125 -9.175781 "/></g></g></g><g fill="#fbfaf9" fill-opacity="1"><g transform="translate(225.172811, 187.499988)"><g><path d="M 13.53125 -7.789062 C 14.917969 -7.789062 14.917969 -8.910156 14.191406 -9.4375 C 11.75 -11.289062 10.957031 -18.746094 12.738281 -30.496094 C 12.871094 -31.355469 13.53125 -32.410156 12.144531 -32.144531 C 9.636719 -31.617188 6.996094 -27.328125 0.660156 -27.328125 C 0 -27.328125 -0.265625 -26.535156 0.394531 -26.007812 C 2.707031 -24.226562 3.101562 -22.773438 3.101562 -20.332031 L 3.101562 -14.785156 C 3.101562 -12.34375 2.707031 -10.890625 0.394531 -9.175781 C -0.265625 -8.648438 0 -7.789062 0.660156 -7.789062 Z M 4.949219 -31.75 C 7.65625 -31.75 10.296875 -33.929688 10.890625 -36.566406 C 11.484375 -39.273438 9.769531 -41.386719 7.128906 -41.386719 C 4.421875 -41.386719 1.78125 -39.273438 1.1875 -36.566406 C 0.59375 -33.929688 2.308594 -31.75 4.949219 -31.75 Z M 4.949219 -31.75 "/></g></g></g><g fill="#fbfaf9" fill-opacity="1"><g transform="translate(240.814675, 187.499988)"><g><path d="M 23.5 -15.378906 C 21.652344 -12.9375 17.625 -12.078125 15.183594 -12.738281 C 12.542969 -13.53125 11.089844 -15.378906 10.429688 -17.558594 C 11.816406 -16.964844 13.332031 -16.566406 15.050781 -16.566406 C 20.199219 -16.566406 24.421875 -20.066406 24.421875 -24.355469 C 24.421875 -28.714844 18.878906 -32.210938 13.730469 -32.210938 C 5.808594 -32.210938 0 -26.734375 0 -20 C 0 -13.265625 5.875 -7.789062 13.203125 -7.789062 C 18.285156 -7.789062 22.707031 -10.496094 24.886719 -14.390625 C 25.28125 -15.117188 24.160156 -16.238281 23.5 -15.378906 Z M 13.398438 -30.363281 C 15.183594 -30.363281 16.4375 -27.65625 16.4375 -24.355469 C 16.4375 -21.121094 15.183594 -18.417969 13.398438 -18.417969 C 11.816406 -18.417969 10.164062 -20.59375 10.164062 -24.09375 C 10.164062 -28.316406 12.34375 -30.363281 13.398438 -30.363281 Z M 13.398438 -30.363281 "/></g></g></g><g fill="#c88b85" fill-opacity="1"><g transform="translate(106.189947, 227.531455)"><g><path d="M 16.5 -32.210938 C 14.917969 -32.210938 13.398438 -31.949219 12.011719 -31.484375 C 12.210938 -34.257812 12.542969 -37.097656 13.003906 -39.738281 C 13.136719 -40.59375 13.730469 -41.714844 12.34375 -41.386719 C 9.902344 -40.925781 6.996094 -36.566406 0.660156 -36.566406 C 0 -36.566406 -0.265625 -35.777344 0.394531 -35.246094 C 2.707031 -33.53125 3.101562 -32.078125 3.101562 -29.636719 L 3.101562 -14.785156 C 3.101562 -12.34375 2.707031 -10.890625 0.394531 -9.175781 C -0.265625 -8.648438 0 -7.789062 0.660156 -7.789062 L 16.5 -7.789062 C 23.761719 -7.789062 29.703125 -13.265625 29.703125 -20 C 29.703125 -26.734375 23.761719 -32.210938 16.5 -32.210938 Z M 16.5 -9.636719 C 14.390625 -9.636719 12.671875 -14.324219 12.671875 -20 C 12.671875 -25.742188 14.390625 -30.363281 16.5 -30.363281 C 18.613281 -30.363281 20.332031 -25.742188 20.332031 -20 C 20.332031 -14.324219 18.613281 -9.636719 16.5 -9.636719 Z M 16.5 -9.636719 "/></g></g></g><g fill="#c88b85" fill-opacity="1"><g transform="translate(136.879832, 227.531455)"><g><path d="M 29.503906 -30.496094 C 29.636719 -31.355469 30.230469 -32.410156 28.84375 -32.144531 C 26.402344 -31.617188 23.695312 -27.328125 17.359375 -27.328125 C 16.699219 -27.328125 16.4375 -26.535156 17.097656 -26.007812 C 19.40625 -24.226562 19.800781 -22.773438 19.800781 -20.332031 L 19.800781 -14.785156 C 18.945312 -12.804688 17.691406 -10.824219 16.304688 -10.824219 C 11.351562 -10.824219 11.089844 -22.640625 12.738281 -30.496094 C 12.9375 -31.355469 13.53125 -32.410156 12.144531 -32.144531 C 9.636719 -31.617188 6.996094 -27.328125 0.660156 -27.328125 C 0 -27.328125 -0.265625 -26.535156 0.394531 -26.007812 C 2.707031 -24.226562 3.101562 -22.773438 3.101562 -20.332031 C 3.101562 -10.5625 7.65625 -7.789062 13.597656 -7.789062 C 16.566406 -7.789062 18.613281 -9.503906 20.066406 -11.617188 C 20.726562 -9.703125 22.574219 -7.789062 25.480469 -7.789062 L 31.550781 -7.789062 C 32.210938 -7.789062 32.34375 -8.515625 31.75 -9.175781 C 27.65625 -14.058594 28.648438 -25.214844 29.503906 -30.496094 Z M 29.503906 -30.496094 "/></g></g></g><g fill="#c88b85" fill-opacity="1"><g transform="translate(169.285712, 227.531455)"><g><path d="M 16.5 -32.210938 C 14.917969 -32.210938 13.398438 -31.949219 12.011719 -31.484375 C 12.210938 -34.257812 12.542969 -37.097656 13.003906 -39.738281 C 13.136719 -40.59375 13.730469 -41.714844 12.34375 -41.386719 C 9.902344 -40.925781 6.996094 -36.566406 0.660156 -36.566406 C 0 -36.566406 -0.265625 -35.777344 0.394531 -35.246094 C 2.707031 -33.53125 3.101562 -32.078125 3.101562 -29.636719 L 3.101562 -14.785156 C 3.101562 -12.34375 2.707031 -10.890625 0.394531 -9.175781 C -0.265625 -8.648438 0 -7.789062 0.660156 -7.789062 L 16.5 -7.789062 C 23.761719 -7.789062 29.703125 -13.265625 29.703125 -20 C 29.703125 -26.734375 23.761719 -32.210938 16.5 -32.210938 Z M 16.5 -9.636719 C 14.390625 -9.636719 12.671875 -14.324219 12.671875 -20 C 12.671875 -25.742188 14.390625 -30.363281 16.5 -30.363281 C 18.613281 -30.363281 20.332031 -25.742188 20.332031 -20 C 20.332031 -14.324219 18.613281 -9.636719 16.5 -9.636719 Z M 16.5 -9.636719 "/></g></g></g><g fill="#c88b85" fill-opacity="1"><g transform="translate(199.9756, 227.531455)"><g><path d="M 16.5 -32.210938 C 14.917969 -32.210938 13.398438 -31.949219 12.011719 -31.484375 C 12.210938 -34.257812 12.542969 -37.097656 13.003906 -39.738281 C 13.136719 -40.59375 13.730469 -41.714844 12.34375 -41.386719 C 9.902344 -40.925781 6.996094 -36.566406 0.660156 -36.566406 C 0 -36.566406 -0.265625 -35.777344 0.394531 -35.246094 C 2.707031 -33.53125 3.101562 -32.078125 3.101562 -29.636719 L 3.101562 -14.785156 C 3.101562 -12.34375 2.707031 -10.890625 0.394531 -9.175781 C -0.265625 -8.648438 0 -7.789062 0.660156 -7.789062 L 16.5 -7.789062 C 23.761719 -7.789062 29.703125 -13.265625 29.703125 -20 C 29.703125 -26.734375 23.761719 -32.210938 16.5 -32.210938 Z M 16.5 -9.636719 C 14.390625 -9.636719 12.671875 -14.324219 12.671875 -20 C 12.671875 -25.742188 14.390625 -30.363281 16.5 -30.363281 C 18.613281 -30.363281 20.332031 -25.742188 20.332031 -20 C 20.332031 -14.324219 18.613281 -9.636719 16.5 -9.636719 Z M 16.5 -9.636719 "/></g></g></g><g fill="#c88b85" fill-opacity="1"><g transform="translate(230.665483, 227.531455)"><g><path d="M 14.457031 -9.4375 C 12.011719 -11.289062 10.691406 -27.128906 13.003906 -39.738281 C 13.136719 -40.59375 13.730469 -41.714844 12.34375 -41.386719 C 9.902344 -40.925781 6.996094 -36.566406 0.660156 -36.566406 C 0 -36.566406 -0.265625 -35.777344 0.394531 -35.246094 C 2.707031 -33.53125 3.101562 -32.078125 3.101562 -29.636719 L 3.101562 -14.785156 C 3.101562 -12.34375 2.707031 -10.890625 0.394531 -9.175781 C -0.265625 -8.648438 0 -7.789062 0.660156 -7.789062 L 13.730469 -7.789062 C 15.183594 -7.789062 15.117188 -8.910156 14.457031 -9.4375 Z M 14.457031 -9.4375 "/></g></g></g><g fill="#c88b85" fill-opacity="1"><g transform="translate(246.043354, 227.531455)"><g><path d="M 23.5 -15.378906 C 21.652344 -12.9375 17.625 -12.078125 15.183594 -12.738281 C 12.542969 -13.53125 11.089844 -15.378906 10.429688 -17.558594 C 11.816406 -16.964844 13.332031 -16.566406 15.050781 -16.566406 C 20.199219 -16.566406 24.421875 -20.066406 24.421875 -24.355469 C 24.421875 -28.714844 18.878906 -32.210938 13.730469 -32.210938 C 5.808594 -32.210938 0 -26.734375 0 -20 C 0 -13.265625 5.875 -7.789062 13.203125 -7.789062 C 18.285156 -7.789062 22.707031 -10.496094 24.886719 -14.390625 C 25.28125 -15.117188 24.160156 -16.238281 23.5 -15.378906 Z M 13.398438 -30.363281 C 15.183594 -30.363281 16.4375 -27.65625 16.4375 -24.355469 C 16.4375 -21.121094 15.183594 -18.417969 13.398438 -18.417969 C 11.816406 -18.417969 10.164062 -20.59375 10.164062 -24.09375 C 10.164062 -28.316406 12.34375 -30.363281 13.398438 -30.363281 Z M 13.398438 -30.363281 "/></g></g></g><g fill="#fbfaf9" fill-opacity="1"><g transform="translate(104.403398, 226.499985)"><g><path d="M 16.5 -32.210938 C 14.917969 -32.210938 13.398438 -31.949219 12.011719 -31.484375 C 12.210938 -34.257812 12.542969 -37.097656 13.003906 -39.738281 C 13.136719 -40.59375 13.730469 -41.714844 12.34375 -41.386719 C 9.902344 -40.925781 6.996094 -36.566406 0.660156 -36.566406 C 0 -36.566406 -0.265625 -35.777344 0.394531 -35.246094 C 2.707031 -33.53125 3.101562 -32.078125 3.101562 -29.636719 L 3.101562 -14.785156 C 3.101562 -12.34375 2.707031 -10.890625 0.394531 -9.175781 C -0.265625 -8.648438 0 -7.789062 0.660156 -7.789062 L 16.5 -7.789062 C 23.761719 -7.789062 29.703125 -13.265625 29.703125 -20 C 29.703125 -26.734375 23.761719 -32.210938 16.5 -32.210938 Z M 16.5 -9.636719 C 14.390625 -9.636719 12.671875 -14.324219 12.671875 -20 C 12.671875 -25.742188 14.390625 -30.363281 16.5 -30.363281 C 18.613281 -30.363281 20.332031 -25.742188 20.332031 -20 C 20.332031 -14.324219 18.613281 -9.636719 16.5 -9.636719 Z M 16.5 -9.636719 "/></g></g></g><g fill="#fbfaf9" fill-opacity="1"><g transform="translate(135.093283, 226.499985)"><g><path d="M 29.503906 -30.496094 C 29.636719 -31.355469 30.230469 -32.410156 28.84375 -32.144531 C 26.402344 -31.617188 23.695312 -27.328125 17.359375 -27.328125 C 16.699219 -27.328125 16.4375 -26.535156 17.097656 -26.007812 C 19.40625 -24.226562 19.800781 -22.773438 19.800781 -20.332031 L 19.800781 -14.785156 C 18.945312 -12.804688 17.691406 -10.824219 16.304688 -10.824219 C 11.351562 -10.824219 11.089844 -22.640625 12.738281 -30.496094 C 12.9375 -31.355469 13.53125 -32.410156 12.144531 -32.144531 C 9.636719 -31.617188 6.996094 -27.328125 0.660156 -27.328125 C 0 -27.328125 -0.265625 -26.535156 0.394531 -26.007812 C 2.707031 -24.226562 3.101562 -22.773438 3.101562 -20.332031 C 3.101562 -10.5625 7.65625 -7.789062 13.597656 -7.789062 C 16.566406 -7.789062 18.613281 -9.503906 20.066406 -11.617188 C 20.726562 -9.703125 22.574219 -7.789062 25.480469 -7.789062 L 31.550781 -7.789062 C 32.210938 -7.789062 32.34375 -8.515625 31.75 -9.175781 C 27.65625 -14.058594 28.648438 -25.214844 29.503906 -30.496094 Z M 29.503906 -30.496094 "/></g></g></g><g fill="#fbfaf9" fill-opacity="1"><g transform="translate(167.499164, 226.499985)"><g><path d="M 16.5 -32.210938 C 14.917969 -32.210938 13.398438 -31.949219 12.011719 -31.484375 C 12.210938 -34.257812 12.542969 -37.097656 13.003906 -39.738281 C 13.136719 -40.59375 13.730469 -41.714844 12.34375 -41.386719 C 9.902344 -40.925781 6.996094 -36.566406 0.660156 -36.566406 C 0 -36.566406 -0.265625 -35.777344 0.394531 -35.246094 C 2.707031 -33.53125 3.101562 -32.078125 3.101562 -29.636719 L 3.101562 -14.785156 C 3.101562 -12.34375 2.707031 -10.890625 0.394531 -9.175781 C -0.265625 -8.648438 0 -7.789062 0.660156 -7.789062 L 16.5 -7.789062 C 23.761719 -7.789062 29.703125 -13.265625 29.703125 -20 C 29.703125 -26.734375 23.761719 -32.210938 16.5 -32.210938 Z M 16.5 -9.636719 C 14.390625 -9.636719 12.671875 -14.324219 12.671875 -20 C 12.671875 -25.742188 14.390625 -30.363281 16.5 -30.363281 C 18.613281 -30.363281 20.332031 -25.742188 20.332031 -20 C 20.332031 -14.324219 18.613281 -9.636719 16.5 -9.636719 Z M 16.5 -9.636719 "/></g></g></g><g fill="#fbfaf9" fill-opacity="1"><g transform="translate(198.189051, 226.499985)"><g><path d="M 16.5 -32.210938 C 14.917969 -32.210938 13.398438 -31.949219 12.011719 -31.484375 C 12.210938 -34.257812 12.542969 -37.097656 13.003906 -39.738281 C 13.136719 -40.59375 13.730469 -41.714844 12.34375 -41.386719 C 9.902344 -40.925781 6.996094 -36.566406 0.660156 -36.566406 C 0 -36.566406 -0.265625 -35.777344 0.394531 -35.246094 C 2.707031 -33.53125 3.101562 -32.078125 3.101562 -29.636719 L 3.101562 -14.785156 C 3.101562 -12.34375 2.707031 -10.890625 0.394531 -9.175781 C -0.265625 -8.648438 0 -7.789062 0.660156 -7.789062 L 16.5 -7.789062 C 23.761719 -7.789062 29.703125 -13.265625 29.703125 -20 C 29.703125 -26.734375 23.761719 -32.210938 16.5 -32.210938 Z M 16.5 -9.636719 C 14.390625 -9.636719 12.671875 -14.324219 12.671875 -20 C 12.671875 -25.742188 14.390625 -30.363281 16.5 -30.363281 C 18.613281 -30.363281 20.332031 -25.742188 20.332031 -20 C 20.332031 -14.324219 18.613281 -9.636719 16.5 -9.636719 Z M 16.5 -9.636719 "/></g></g></g><g fill="#fbfaf9" fill-opacity="1"><g transform="translate(228.878934, 226.499985)"><g><path d="M 14.457031 -9.4375 C 12.011719 -11.289062 10.691406 -27.128906 13.003906 -39.738281 C 13.136719 -40.59375 13.730469 -41.714844 12.34375 -41.386719 C 9.902344 -40.925781 6.996094 -36.566406 0.660156 -36.566406 C 0 -36.566406 -0.265625 -35.777344 0.394531 -35.246094 C 2.707031 -33.53125 3.101562 -32.078125 3.101562 -29.636719 L 3.101562 -14.785156 C 3.101562 -12.34375 2.707031 -10.890625 0.394531 -9.175781 C -0.265625 -8.648438 0 -7.789062 0.660156 -7.789062 L 13.730469 -7.789062 C 15.183594 -7.789062 15.117188 -8.910156 14.457031 -9.4375 Z M 14.457031 -9.4375 "/></g></g></g><g fill="#fbfaf9" fill-opacity="1"><g transform="translate(244.256805, 226.499985)"><g><path d="M 23.5 -15.378906 C 21.652344 -12.9375 17.625 -12.078125 15.183594 -12.738281 C 12.542969 -13.53125 11.089844 -15.378906 10.429688 -17.558594 C 11.816406 -16.964844 13.332031 -16.566406 15.050781 -16.566406 C 20.199219 -16.566406 24.421875 -20.066406 24.421875 -24.355469 C 24.421875 -28.714844 18.878906 -32.210938 13.730469 -32.210938 C 5.808594 -32.210938 0 -26.734375 0 -20 C 0 -13.265625 5.875 -7.789062 13.203125 -7.789062 C 18.285156 -7.789062 22.707031 -10.496094 24.886719 -14.390625 C 25.28125 -15.117188 24.160156 -16.238281 23.5 -15.378906 Z M 13.398438 -30.363281 C 15.183594 -30.363281 16.4375 -27.65625 16.4375 -24.355469 C 16.4375 -21.121094 15.183594 -18.417969 13.398438 -18.417969 C 11.816406 -18.417969 10.164062 -20.59375 10.164062 -24.09375 C 10.164062 -28.316406 12.34375 -30.363281 13.398438 -30.363281 Z M 13.398438 -30.363281 "/></g></g></g><g clip-path="url(#10267d2f5a)"><path fill="#fbfaf9" d="M 45.703125 214.886719 C 38.152344 216.664062 36.710938 218.101562 34.9375 225.652344 C 33.160156 218.101562 31.71875 216.664062 24.171875 214.886719 C 31.71875 213.109375 33.160156 211.671875 34.9375 204.121094 C 36.710938 211.671875 38.152344 213.109375 45.703125 214.886719 Z M 45.703125 214.886719 " fill-opacity="1" fill-rule="nonzero"/></g><g clip-path="url(#8b29e921e8)"><path fill="#c88b85" d="M 64.511719 232.070312 C 59.34375 233.285156 58.359375 234.269531 57.144531 239.4375 C 55.929688 234.269531 54.945312 233.285156 49.777344 232.070312 C 54.945312 230.855469 55.929688 229.871094 57.144531 224.703125 C 58.359375 229.871094 59.34375 230.855469 64.511719 232.070312 Z M 64.511719 232.070312 " fill-opacity="1" fill-rule="nonzero"/></g><g clip-path="url(#91f8592669)"><path fill="#fbfaf9" d="M 281.328125 136.234375 C 288.878906 134.457031 290.316406 133.019531 292.09375 125.46875 C 293.871094 133.019531 295.3125 134.457031 302.859375 136.234375 C 295.3125 138.011719 293.871094 139.453125 292.09375 147 C 290.316406 139.453125 288.878906 138.011719 281.328125 136.234375 Z M 281.328125 136.234375 " fill-opacity="1" fill-rule="nonzero"/></g><g clip-path="url(#3dd5ccc055)"><path fill="#fbfaf9" d="M 270.152344 118.105469 C 275.320312 116.890625 276.304688 115.90625 277.519531 110.738281 C 278.734375 115.90625 279.722656 116.890625 284.886719 118.105469 C 279.722656 119.320312 278.734375 120.304688 277.519531 125.472656 C 276.304688 120.304688 275.320312 119.320312 270.152344 118.105469 Z M 270.152344 118.105469 " fill-opacity="1" fill-rule="nonzero"/></g><g clip-path="url(#1a1142c140)"><path fill="#c88b85" d="M 216.253906 141.777344 C 220.136719 140.863281 220.875 140.125 221.789062 136.238281 C 222.703125 140.125 223.445312 140.863281 227.328125 141.777344 C 223.445312 142.691406 222.703125 143.429688 221.789062 147.316406 C 220.875 143.429688 220.136719 142.691406 216.253906 141.777344 Z M 216.253906 141.777344 " fill-opacity="1" fill-rule="nonzero"/></g><g clip-path="url(#d7ef69a687)"><path fill="#c88b85" d="M 346.253906 177.851562 C 341.085938 179.066406 340.101562 180.050781 338.886719 185.21875 C 337.671875 180.050781 336.6875 179.066406 331.519531 177.851562 C 336.6875 176.636719 337.671875 175.652344 338.886719 170.484375 C 340.101562 175.652344 341.085938 176.636719 346.253906 177.851562 Z M 346.253906 177.851562 " fill-opacity="1" fill-rule="nonzero"/></g><g clip-path="url(#2abcacb867)"><path fill="#fbfaf9" d="M 324.023438 245.015625 C 318.855469 246.234375 317.871094 247.21875 316.65625 252.382812 C 315.441406 247.21875 314.453125 246.234375 309.289062 245.015625 C 314.453125 243.800781 315.441406 242.816406 316.65625 237.652344 C 317.871094 242.816406 318.855469 243.800781 324.023438 245.015625 Z M 324.023438 245.015625 " fill-opacity="1" fill-rule="nonzero"/></g><g clip-path="url(#348f1d89e5)"><path fill="#c88b85" d="M 119.449219 133.46875 C 114.28125 134.6875 113.296875 135.671875 112.082031 140.835938 C 110.867188 135.671875 109.882812 134.6875 104.714844 133.46875 C 109.882812 132.253906 110.867188 131.269531 112.082031 126.105469 C 113.296875 131.269531 114.28125 132.253906 119.449219 133.46875 Z M 119.449219 133.46875 " fill-opacity="1" fill-rule="nonzero"/></g><g fill="#fbfaf9" fill-opacity="1"><g transform="translate(139.524547, 241.686313)"><g><path d="M 3 0.109375 C 2.46875 0.109375 1.953125 0.0390625 1.453125 -0.09375 C 0.960938 -0.238281 0.566406 -0.425781 0.265625 -0.65625 L 0.796875 -1.828125 C 1.085938 -1.617188 1.429688 -1.445312 1.828125 -1.3125 C 2.222656 -1.1875 2.617188 -1.125 3.015625 -1.125 C 3.453125 -1.125 3.773438 -1.191406 3.984375 -1.328125 C 4.203125 -1.460938 4.3125 -1.640625 4.3125 -1.859375 C 4.3125 -2.015625 4.25 -2.144531 4.125 -2.25 C 4 -2.351562 3.835938 -2.4375 3.640625 -2.5 C 3.441406 -2.5625 3.175781 -2.632812 2.84375 -2.71875 C 2.332031 -2.832031 1.914062 -2.953125 1.59375 -3.078125 C 1.269531 -3.203125 0.988281 -3.394531 0.75 -3.65625 C 0.519531 -3.925781 0.40625 -4.285156 0.40625 -4.734375 C 0.40625 -5.128906 0.507812 -5.484375 0.71875 -5.796875 C 0.925781 -6.117188 1.242188 -6.367188 1.671875 -6.546875 C 2.097656 -6.734375 2.617188 -6.828125 3.234375 -6.828125 C 3.660156 -6.828125 4.078125 -6.773438 4.484375 -6.671875 C 4.898438 -6.578125 5.257812 -6.429688 5.5625 -6.234375 L 5.078125 -5.0625 C 4.460938 -5.40625 3.84375 -5.578125 3.21875 -5.578125 C 2.789062 -5.578125 2.472656 -5.503906 2.265625 -5.359375 C 2.054688 -5.222656 1.953125 -5.039062 1.953125 -4.8125 C 1.953125 -4.582031 2.070312 -4.410156 2.3125 -4.296875 C 2.550781 -4.191406 2.914062 -4.082031 3.40625 -3.96875 C 3.914062 -3.851562 4.332031 -3.734375 4.65625 -3.609375 C 4.988281 -3.484375 5.269531 -3.289062 5.5 -3.03125 C 5.738281 -2.769531 5.859375 -2.414062 5.859375 -1.96875 C 5.859375 -1.582031 5.75 -1.226562 5.53125 -0.90625 C 5.3125 -0.59375 4.988281 -0.34375 4.5625 -0.15625 C 4.132812 0.0195312 3.613281 0.109375 3 0.109375 Z M 3 0.109375 "/></g></g></g><g fill="#fbfaf9" fill-opacity="1"><g transform="translate(152.357859, 241.686313)"><g><path d="M 4.046875 0.109375 C 3.347656 0.109375 2.71875 -0.0351562 2.15625 -0.328125 C 1.601562 -0.628906 1.164062 -1.046875 0.84375 -1.578125 C 0.53125 -2.109375 0.375 -2.703125 0.375 -3.359375 C 0.375 -4.015625 0.53125 -4.601562 0.84375 -5.125 C 1.164062 -5.65625 1.601562 -6.070312 2.15625 -6.375 C 2.71875 -6.675781 3.347656 -6.828125 4.046875 -6.828125 C 4.742188 -6.828125 5.367188 -6.675781 5.921875 -6.375 C 6.484375 -6.070312 6.921875 -5.65625 7.234375 -5.125 C 7.554688 -4.601562 7.71875 -4.015625 7.71875 -3.359375 C 7.71875 -2.703125 7.554688 -2.109375 7.234375 -1.578125 C 6.921875 -1.046875 6.484375 -0.628906 5.921875 -0.328125 C 5.367188 -0.0351562 4.742188 0.109375 4.046875 0.109375 Z M 4.046875 -1.203125 C 4.441406 -1.203125 4.800781 -1.289062 5.125 -1.46875 C 5.445312 -1.65625 5.695312 -1.910156 5.875 -2.234375 C 6.0625 -2.566406 6.15625 -2.941406 6.15625 -3.359375 C 6.15625 -3.773438 6.0625 -4.144531 5.875 -4.46875 C 5.695312 -4.789062 5.445312 -5.039062 5.125 -5.21875 C 4.800781 -5.40625 4.441406 -5.5 4.046875 -5.5 C 3.648438 -5.5 3.289062 -5.40625 2.96875 -5.21875 C 2.65625 -5.039062 2.40625 -4.789062 2.21875 -4.46875 C 2.039062 -4.144531 1.953125 -3.773438 1.953125 -3.359375 C 1.953125 -2.941406 2.039062 -2.566406 2.21875 -2.234375 C 2.40625 -1.910156 2.65625 -1.65625 2.96875 -1.46875 C 3.289062 -1.289062 3.648438 -1.203125 4.046875 -1.203125 Z M 4.046875 -1.203125 "/></g></g></g><g fill="#fbfaf9" fill-opacity="1"><g transform="translate(167.165861, 241.686313)"><g><path d="M 5.21875 -1.4375 L 2.09375 -1.4375 L 1.5 0 L -0.09375 0 L 2.90625 -6.71875 L 4.4375 -6.71875 L 7.4375 0 L 5.8125 0 Z M 4.734375 -2.625 L 3.671875 -5.1875 L 2.59375 -2.625 Z M 4.734375 -2.625 "/></g></g></g><g fill="#fbfaf9" fill-opacity="1"><g transform="translate(181.226162, 241.686313)"><g><path d="M 3.703125 -6.71875 C 4.296875 -6.71875 4.8125 -6.617188 5.25 -6.421875 C 5.6875 -6.222656 6.023438 -5.941406 6.265625 -5.578125 C 6.503906 -5.210938 6.625 -4.78125 6.625 -4.28125 C 6.625 -3.789062 6.503906 -3.359375 6.265625 -2.984375 C 6.023438 -2.617188 5.6875 -2.335938 5.25 -2.140625 C 4.8125 -1.953125 4.296875 -1.859375 3.703125 -1.859375 L 2.34375 -1.859375 L 2.34375 0 L 0.796875 0 L 0.796875 -6.71875 Z M 3.609375 -3.125 C 4.078125 -3.125 4.429688 -3.222656 4.671875 -3.421875 C 4.921875 -3.617188 5.046875 -3.90625 5.046875 -4.28125 C 5.046875 -4.65625 4.921875 -4.941406 4.671875 -5.140625 C 4.429688 -5.347656 4.078125 -5.453125 3.609375 -5.453125 L 2.34375 -5.453125 L 2.34375 -3.125 Z M 3.609375 -3.125 "/></g></g></g><g fill="#fbfaf9" fill-opacity="1"><g transform="translate(194.960548, 241.686313)"><g/></g></g><g fill="#fbfaf9" fill-opacity="1"><g transform="translate(204.390879, 241.686313)"><g><path d="M 4.015625 0.109375 C 3.328125 0.109375 2.707031 -0.0351562 2.15625 -0.328125 C 1.601562 -0.628906 1.164062 -1.039062 0.84375 -1.5625 C 0.53125 -2.09375 0.375 -2.691406 0.375 -3.359375 C 0.375 -4.023438 0.53125 -4.617188 0.84375 -5.140625 C 1.164062 -5.671875 1.601562 -6.082031 2.15625 -6.375 C 2.707031 -6.675781 3.328125 -6.828125 4.015625 -6.828125 C 4.597656 -6.828125 5.125 -6.722656 5.59375 -6.515625 C 6.0625 -6.316406 6.457031 -6.023438 6.78125 -5.640625 L 5.78125 -4.71875 C 5.332031 -5.238281 4.769531 -5.5 4.09375 -5.5 C 3.675781 -5.5 3.304688 -5.40625 2.984375 -5.21875 C 2.660156 -5.039062 2.40625 -4.789062 2.21875 -4.46875 C 2.039062 -4.144531 1.953125 -3.773438 1.953125 -3.359375 C 1.953125 -2.941406 2.039062 -2.566406 2.21875 -2.234375 C 2.40625 -1.910156 2.660156 -1.65625 2.984375 -1.46875 C 3.304688 -1.289062 3.675781 -1.203125 4.09375 -1.203125 C 4.769531 -1.203125 5.332031 -1.46875 5.78125 -2 L 6.78125 -1.078125 C 6.457031 -0.691406 6.0625 -0.394531 5.59375 -0.1875 C 5.125 0.0078125 4.597656 0.109375 4.015625 0.109375 Z M 4.015625 0.109375 "/></g></g></g><g fill="#fbfaf9" fill-opacity="1"><g transform="translate(218.134843, 241.686313)"><g><path d="M 4.046875 0.109375 C 3.347656 0.109375 2.71875 -0.0351562 2.15625 -0.328125 C 1.601562 -0.628906 1.164062 -1.046875 0.84375 -1.578125 C 0.53125 -2.109375 0.375 -2.703125 0.375 -3.359375 C 0.375 -4.015625 0.53125 -4.601562 0.84375 -5.125 C 1.164062 -5.65625 1.601562 -6.070312 2.15625 -6.375 C 2.71875 -6.675781 3.347656 -6.828125 4.046875 -6.828125 C 4.742188 -6.828125 5.367188 -6.675781 5.921875 -6.375 C 6.484375 -6.070312 6.921875 -5.65625 7.234375 -5.125 C 7.554688 -4.601562 7.71875 -4.015625 7.71875 -3.359375 C 7.71875 -2.703125 7.554688 -2.109375 7.234375 -1.578125 C 6.921875 -1.046875 6.484375 -0.628906 5.921875 -0.328125 C 5.367188 -0.0351562 4.742188 0.109375 4.046875 0.109375 Z M 4.046875 -1.203125 C 4.441406 -1.203125 4.800781 -1.289062 5.125 -1.46875 C 5.445312 -1.65625 5.695312 -1.910156 5.875 -2.234375 C 6.0625 -2.566406 6.15625 -2.941406 6.15625 -3.359375 C 6.15625 -3.773438 6.0625 -4.144531 5.875 -4.46875 C 5.695312 -4.789062 5.445312 -5.039062 5.125 -5.21875 C 4.800781 -5.40625 4.441406 -5.5 4.046875 -5.5 C 3.648438 -5.5 3.289062 -5.40625 2.96875 -5.21875 C 2.65625 -5.039062 2.40625 -4.789062 2.21875 -4.46875 C 2.039062 -4.144531 1.953125 -3.773438 1.953125 -3.359375 C 1.953125 -2.941406 2.039062 -2.566406 2.21875 -2.234375 C 2.40625 -1.910156 2.65625 -1.65625 2.96875 -1.46875 C 3.289062 -1.289062 3.648438 -1.203125 4.046875 -1.203125 Z M 4.046875 -1.203125 "/></g></g></g><g fill="#fbfaf9" fill-opacity="1"><g transform="translate(232.942845, 241.686313)"><g><path d="M 1.25 0.078125 C 0.988281 0.078125 0.769531 -0.0078125 0.59375 -0.1875 C 0.414062 -0.363281 0.328125 -0.585938 0.328125 -0.859375 C 0.328125 -1.140625 0.414062 -1.363281 0.59375 -1.53125 C 0.769531 -1.695312 0.988281 -1.78125 1.25 -1.78125 C 1.519531 -1.78125 1.742188 -1.695312 1.921875 -1.53125 C 2.097656 -1.363281 2.1875 -1.140625 2.1875 -0.859375 C 2.1875 -0.585938 2.097656 -0.363281 1.921875 -0.1875 C 1.742188 -0.0078125 1.519531 0.078125 1.25 0.078125 Z M 1.25 0.078125 "/></g></g></g></svg>