<svg xmlns="http://www.w3.org/2000/svg" xmlns:xlink="http://www.w3.org/1999/xlink" zoomAndPan="magnify" viewBox="0 0 375 374.999991" preserveAspectRatio="xMidYMid meet" version="1.0"><defs><g/><clipPath id="827d042960"><path d="M 12.878906 12.878906 L 362.378906 12.878906 L 362.378906 362.378906 L 12.878906 362.378906 Z M 12.878906 12.878906 " clip-rule="nonzero"/></clipPath><clipPath id="7ad3469fe1"><path d="M 40.898438 37.5 L 334.148438 37.5 L 334.148438 330.75 L 40.898438 330.75 Z M 40.898438 37.5 " clip-rule="nonzero"/></clipPath><clipPath id="e9c614cbdd"><path d="M 187.523438 37.5 C 106.546875 37.5 40.898438 103.144531 40.898438 184.125 C 40.898438 265.105469 106.546875 330.75 187.523438 330.75 C 268.503906 330.75 334.148438 265.105469 334.148438 184.125 C 334.148438 103.144531 268.503906 37.5 187.523438 37.5 " clip-rule="nonzero"/></clipPath><clipPath id="01288d7360"><path d="M 82 145 L 352 145 L 352 331 L 82 331 Z M 82 145 " clip-rule="nonzero"/></clipPath><clipPath id="b54aaf5114"><path d="M 82.476562 299.140625 L 332.101562 145.25 L 351.386719 176.53125 L 101.761719 330.425781 Z M 82.476562 299.140625 " clip-rule="nonzero"/></clipPath><clipPath id="c57484172b"><path d="M 103 290 L 234 290 L 234 343 L 103 343 Z M 103 290 " clip-rule="nonzero"/></clipPath><clipPath id="dd8fa6fe6a"><path d="M 109.179688 290.195312 L 233.484375 314.960938 L 227.917969 342.910156 L 103.609375 318.148438 Z M 109.179688 290.195312 " clip-rule="nonzero"/></clipPath><clipPath id="813975f1e6"><path d="M 223 238 L 335 238 L 335 334 L 223 334 Z M 223 238 " clip-rule="nonzero"/></clipPath><clipPath id="6e4c6430a8"><path d="M 223.875 318.675781 L 321.695312 238.074219 L 334.09375 253.125 L 236.273438 333.726562 Z M 223.875 318.675781 " clip-rule="nonzero"/></clipPath><clipPath id="455718810f"><path d="M 307 157 L 345 157 L 345 246 L 307 246 Z M 307 157 " clip-rule="nonzero"/></clipPath><clipPath id="c2761efde6"><path d="M 307.101562 242.070312 L 316.34375 157.828125 L 344.671875 160.933594 L 335.433594 245.179688 Z M 307.101562 242.070312 " clip-rule="nonzero"/></clipPath></defs><g clip-path="url(#827d042960)"><path fill="#dec2ba" d="M 187.628906 12.878906 C 91.117188 12.878906 12.878906 91.117188 12.878906 187.628906 C 12.878906 284.140625 91.117188 362.378906 187.628906 362.378906 C 284.140625 362.378906 362.378906 284.140625 362.378906 187.628906 C 362.378906 91.117188 284.140625 12.878906 187.628906 12.878906 " fill-opacity="1" fill-rule="nonzero"/></g><g clip-path="url(#7ad3469fe1)"><g clip-path="url(#e9c614cbdd)"><path stroke-linecap="butt" transform="matrix(0.75015, 0, 0, 0.75015, 40.899182, 37.499998)" fill="none" stroke-linejoin="miter" d="M 195.459978 0.00000328268 C 87.512783 0.00000328268 -0.000992221 87.508571 -0.000992221 195.460974 C -0.000992221 303.413377 87.512783 390.921945 195.459978 390.921945 C 303.412381 390.921945 390.920949 303.413377 390.920949 195.460974 C 390.920949 87.508571 303.412381 0.00000328268 195.459978 0.00000328268 " stroke="#fbfaf9" stroke-width="4" stroke-opacity="1" stroke-miterlimit="4"/></g></g><g clip-path="url(#01288d7360)"><g clip-path="url(#b54aaf5114)"><path fill="#dec2ba" d="M 82.492188 299.132812 L 332.089844 145.257812 L 351.375 176.539062 L 101.777344 330.417969 L 82.492188 299.132812 " fill-opacity="1" fill-rule="nonzero"/></g></g><g fill="#fff8f3" fill-opacity="1"><g transform="translate(169.121506, 242.713482)"><g><path d="M 30.085938 -113.230469 L 4.042969 -113.230469 L 4.042969 -111.613281 C 13.425781 -111.613281 14.71875 -110.320312 14.71875 -100.9375 L 14.71875 -12.292969 C 14.71875 -2.910156 13.425781 -1.617188 4.042969 -1.617188 L 4.042969 0 L 60.5 0 C 84.277344 0 97.054688 -9.707031 97.054688 -33 C 97.054688 -52.570312 88.160156 -62.761719 71.011719 -65.511719 C 83.144531 -68.101562 89.777344 -76.675781 89.777344 -88.96875 C 89.777344 -104.820312 79.910156 -113.230469 62.4375 -113.230469 Z M 30.085938 -111.613281 L 52.085938 -111.613281 C 65.511719 -111.613281 74.410156 -106.761719 74.410156 -88.96875 C 74.410156 -72.792969 65.351562 -66.320312 52.570312 -66.320312 L 30.085938 -66.320312 Z M 30.085938 -64.703125 L 52.085938 -64.703125 C 72.46875 -64.703125 81.6875 -53.058594 81.6875 -33 C 81.6875 -12.941406 72.46875 -1.617188 52.085938 -1.617188 L 30.085938 -1.617188 Z M 30.085938 -64.703125 "/></g></g></g><g fill="#f8ede6" fill-opacity="1"><g transform="translate(98.527008, 242.706327)"><g><path d="M 30.132812 -113.398438 L 4.050781 -113.398438 L 4.050781 -111.78125 C 13.445312 -111.78125 14.742188 -110.484375 14.742188 -101.089844 L 14.742188 -12.3125 C 14.742188 -2.914062 13.445312 -1.621094 4.050781 -1.621094 L 4.050781 0 L 60.589844 0 C 84.402344 0 97.199219 -9.71875 97.199219 -33.046875 C 97.199219 -52.648438 88.289062 -62.855469 71.117188 -65.609375 C 83.269531 -68.203125 89.910156 -76.789062 89.910156 -89.101562 C 89.910156 -104.976562 80.027344 -113.398438 62.53125 -113.398438 Z M 30.132812 -111.78125 L 52.164062 -111.78125 C 65.609375 -111.78125 74.519531 -106.921875 74.519531 -89.101562 C 74.519531 -72.898438 65.449219 -66.421875 52.648438 -66.421875 L 30.132812 -66.421875 Z M 30.132812 -64.800781 L 52.164062 -64.800781 C 72.574219 -64.800781 81.808594 -53.136719 81.808594 -33.046875 C 81.808594 -12.960938 72.574219 -1.621094 52.164062 -1.621094 L 30.132812 -1.621094 Z M 30.132812 -64.800781 "/></g></g></g><g fill="#f8ede6" fill-opacity="1"><g transform="translate(191.621408, 353.040816)"><g><path d="M 5.425781 -11.160156 C 3.765625 -11.117188 2.621094 -10.902344 1.859375 -10.417969 C 1.015625 -9.902344 0.679688 -9.085938 0.703125 -8.09375 C 0.746094 -6.292969 1.703125 -5.351562 4.554688 -4.273438 C 6.621094 -3.578125 7.082031 -3.09375 7.109375 -2.066406 C 7.136719 -0.949219 6.191406 -0.152344 4.238281 -0.101562 C 2.484375 -0.0625 1.339844 -0.53125 0.914062 -1.421875 C 1.136719 -1.144531 1.480469 -1.03125 1.839844 -1.039062 C 2.460938 -1.054688 3.085938 -1.441406 3.066406 -2.3125 C 3.042969 -3.179688 2.398438 -3.550781 1.777344 -3.539062 C 1.03125 -3.519531 0.546875 -2.996094 0.566406 -2.25 C 0.601562 -0.761719 1.960938 0.109375 4.242188 0.0507812 C 6.164062 0.00390625 7.464844 -0.261719 8.273438 -0.792969 C 9.113281 -1.339844 9.453125 -2.15625 9.425781 -3.148438 C 9.382812 -4.964844 8.558594 -5.691406 5.578125 -6.84375 C 3.730469 -7.453125 3.015625 -8.101562 2.992188 -9.171875 C 2.960938 -10.445312 3.988281 -10.96875 5.429688 -11.003906 C 6.84375 -11.039062 7.96875 -10.722656 8.453125 -9.972656 C 8.230469 -10.21875 7.914062 -10.363281 7.574219 -10.355469 C 6.828125 -10.339844 6.347656 -9.753906 6.363281 -9.070312 C 6.382812 -8.324219 6.890625 -7.839844 7.636719 -7.859375 C 8.378906 -7.875 8.878906 -8.386719 8.863281 -9.128906 C 8.828125 -10.558594 7.367188 -11.207031 5.425781 -11.160156 Z M 5.425781 -11.160156 "/></g></g></g><g fill="#f8ede6" fill-opacity="1"><g transform="translate(214.756255, 351.502857)"><g><path d="M 4.117188 -11.84375 C 5.992188 -12.199219 7.285156 -11.136719 8.0625 -7.0625 C 8.835938 -2.988281 8.023438 -1.523438 6.148438 -1.167969 C 4.269531 -0.8125 2.976562 -1.878906 2.203125 -5.949219 C 1.429688 -10.023438 2.242188 -11.488281 4.117188 -11.84375 Z M 4.089844 -11.996094 C 0.382812 -11.292969 -1.105469 -9.144531 -0.402344 -5.453125 C 0.296875 -1.761719 2.46875 -0.3125 6.175781 -1.015625 C 9.882812 -1.71875 11.371094 -3.867188 10.667969 -7.558594 C 9.96875 -11.25 7.796875 -12.699219 4.089844 -11.996094 Z M 4.089844 -11.996094 "/></g></g></g><g fill="#f8ede6" fill-opacity="1"><g transform="translate(239.646884, 345.60021)"><g><path d="M -1.410156 -11.066406 L -1.359375 -10.917969 C -0.671875 -11.171875 -0.199219 -11.230469 0.21875 -11.039062 L 0.84375 -2.597656 C 0.914062 -0.933594 0.761719 -0.445312 0.0898438 -0.199219 L 0.144531 -0.0546875 L 3 -1.109375 L 2.945312 -1.253906 C 2 -0.90625 1.472656 -0.992188 1.167969 -1.804688 C 1.046875 -2.140625 0.957031 -2.605469 0.90625 -3.230469 L 0.855469 -4.355469 L 4.496094 -5.703125 L 5.445312 -4.429688 C 5.71875 -4.050781 5.90625 -3.722656 6.003906 -3.460938 C 6.265625 -2.75 5.945312 -2.363281 5.058594 -2.035156 L 5.109375 -1.890625 L 10.222656 -3.78125 L 10.167969 -3.925781 C 9.453125 -3.664062 9.136719 -3.808594 8.46875 -4.722656 L 2.652344 -12.566406 Z M 4.371094 -5.855469 L 2.597656 -5.199219 C 1.679688 -4.859375 1.113281 -5.046875 0.863281 -5.714844 C 0.800781 -5.890625 0.753906 -6.105469 0.730469 -6.34375 L 0.378906 -10.964844 C 0.613281 -10.820312 0.828125 -10.601562 1.058594 -10.289062 Z M 4.371094 -5.855469 "/></g></g></g><g fill="#f8ede6" fill-opacity="1"><g transform="translate(261.856266, 336.250362)"><g><path d="M 5.125 -11.3125 C 4.21875 -12.921875 2.601562 -13.953125 0.519531 -12.777344 L -2.0625 -11.316406 L -2.886719 -10.851562 L -5.128906 -9.582031 L -5.054688 -9.449219 C -4.40625 -9.816406 -4.222656 -9.777344 -3.855469 -9.125 L 0.488281 -1.4375 C 0.855469 -0.789062 0.789062 -0.625 0.140625 -0.257812 L 0.214844 -0.121094 L 4.027344 -2.277344 L 3.953125 -2.410156 C 3.300781 -2.042969 3.15625 -2.085938 2.789062 -2.734375 L 1.421875 -5.152344 L 4.003906 -6.613281 C 6.097656 -7.796875 6.035156 -9.707031 5.125 -11.3125 Z M -1.984375 -11.183594 L -1.054688 -11.710938 C 0.324219 -12.488281 1.5625 -12.257812 2.828125 -10.015625 C 4.011719 -7.921875 3.640625 -6.621094 2.261719 -5.84375 L 1.328125 -5.316406 Z M -1.984375 -11.183594 "/></g></g></g><g fill="#f8ede6" fill-opacity="1"><g transform="translate(281.803844, 323.712079)"><g/></g></g><g fill="#f8ede6" fill-opacity="1"><g transform="translate(295.25656, 312.606077)"><g><path d="M -3.429688 -4.261719 C -0.757812 -1.621094 1.921875 -1.722656 4.527344 -4.363281 C 6.15625 -6.011719 6.617188 -7.429688 6.800781 -8.253906 L 6.679688 -8.375 C 6.214844 -7.175781 5.910156 -6.644531 4.90625 -5.628906 C 3.246094 -3.949219 0.933594 -3.660156 -1.785156 -6.34375 C -4.445312 -8.976562 -4.242188 -11.171875 -2.777344 -12.652344 C -1.589844 -13.855469 -0.582031 -14.214844 0.199219 -14.097656 C -0.121094 -14.085938 -0.414062 -13.960938 -0.675781 -13.695312 C -1.265625 -13.101562 -1.238281 -12.265625 -0.644531 -11.675781 C -0.046875 -11.085938 0.765625 -11.09375 1.355469 -11.6875 C 1.945312 -12.285156 1.949219 -13.109375 1.355469 -13.699219 C 0.46875 -14.570312 -1.035156 -14.636719 -2.890625 -12.761719 C -4.21875 -11.414062 -5.15625 -10.15625 -5.367188 -8.75 C -5.578125 -7.234375 -4.855469 -5.667969 -3.429688 -4.261719 Z M -3.429688 -4.261719 "/></g></g></g><g fill="#f8ede6" fill-opacity="1"><g transform="translate(311.649586, 294.517676)"><g><path d="M -5.304688 -11.363281 C -4.207031 -12.925781 -2.535156 -13.0625 0.855469 -10.683594 C 4.25 -8.300781 4.691406 -6.683594 3.59375 -5.121094 C 2.496094 -3.558594 0.828125 -3.421875 -2.566406 -5.800781 C -5.960938 -8.183594 -6.398438 -9.800781 -5.304688 -11.363281 Z M -5.429688 -11.453125 C -7.597656 -8.363281 -7.167969 -5.785156 -4.089844 -3.628906 C -1.015625 -1.472656 1.554688 -1.945312 3.71875 -5.03125 C 5.886719 -8.121094 5.457031 -10.699219 2.382812 -12.855469 C -0.695312 -15.015625 -3.265625 -14.539062 -5.429688 -11.453125 Z M -5.429688 -11.453125 "/></g></g></g><g fill="#f8ede6" fill-opacity="1"><g transform="translate(325.255695, 272.985659)"><g><path d="M -1.441406 -2.992188 C -1.839844 -2.203125 -1.601562 -1.507812 -0.828125 -1.117188 C -0.0507812 -0.722656 0.652344 -0.941406 1.050781 -1.730469 C 1.453125 -2.519531 1.210938 -3.214844 0.4375 -3.609375 C -0.339844 -4 -1.039062 -3.78125 -1.441406 -2.992188 Z M -1.441406 -2.992188 "/></g></g></g><g clip-path="url(#c57484172b)"><g clip-path="url(#dd8fa6fe6a)"><path fill="#dec2ba" d="M 109.195312 290.199219 L 233.464844 314.957031 L 227.898438 342.90625 L 103.628906 318.152344 L 109.195312 290.199219 " fill-opacity="1" fill-rule="nonzero"/></g></g><g clip-path="url(#813975f1e6)"><g clip-path="url(#6e4c6430a8)"><path fill="#dec2ba" d="M 223.875 318.675781 L 321.691406 238.078125 L 334.089844 253.125 L 236.277344 333.722656 L 223.875 318.675781 " fill-opacity="1" fill-rule="nonzero"/></g></g><g clip-path="url(#455718810f)"><g clip-path="url(#c2761efde6)"><path fill="#dec2ba" d="M 307.105469 242.058594 L 316.339844 157.839844 L 344.671875 160.949219 L 335.433594 245.164062 L 307.105469 242.058594 " fill-opacity="1" fill-rule="nonzero"/></g></g><g fill="#f8ede6" fill-opacity="1"><g transform="translate(114.840126, 314.510055)"><g><path d="M 7.976562 -8.285156 L 7.15625 -8.660156 L 4.789062 -9.757812 L 4.726562 -9.617188 C 5.402344 -9.304688 5.460938 -9.140625 5.148438 -8.460938 L 1.445312 -0.460938 C 1.132812 0.214844 0.96875 0.277344 0.289062 -0.0351562 L 0.226562 0.105469 L 2.59375 1.199219 L 3.410156 1.578125 L 5.832031 2.699219 C 7.945312 3.679688 9.492188 3.367188 10.433594 1.339844 C 11.207031 -0.335938 10.84375 -1.582031 9.496094 -2.515625 C 10.789062 -2.207031 11.660156 -2.867188 12.097656 -3.808594 C 12.625 -4.949219 12.425781 -6.222656 10.734375 -7.003906 Z M 7.910156 -8.144531 L 8.855469 -7.707031 C 9.953125 -7.195312 10.417969 -6.46875 9.703125 -4.917969 C 9.050781 -3.507812 8.113281 -3.257812 7.042969 -3.753906 L 6.082031 -4.199219 Z M 6.019531 -4.058594 L 6.976562 -3.613281 C 8.640625 -2.84375 8.84375 -1.515625 8.035156 0.230469 C 7.226562 1.976562 6.09375 2.652344 4.433594 1.882812 L 3.476562 1.4375 Z M 6.019531 -4.058594 "/></g></g></g><g fill="#f8ede6" fill-opacity="1"><g transform="translate(136.7489, 323.501922)"><g><path d="M 6.539062 -9.28125 L 8.332031 -8.773438 C 10.808594 -8.070312 11.769531 -6.957031 11.183594 -4.894531 L 11.347656 -4.847656 L 12.195312 -7.835938 L 6.582031 -9.429688 L 5.921875 -9.617188 L 3.203125 -10.386719 L 3.164062 -10.238281 C 3.878906 -10.035156 3.980469 -9.875 3.777344 -9.160156 L 1.371094 -0.675781 C 1.167969 0.0390625 1 0.121094 0.28125 -0.0820312 L 0.238281 0.0664062 L 2.957031 0.839844 L 3.613281 1.023438 L 9.230469 2.617188 L 10.078125 -0.367188 L 9.914062 -0.414062 C 9.328125 1.644531 7.929688 2.085938 5.449219 1.382812 L 3.65625 0.875 L 5.070312 -4.113281 L 7.253906 -3.492188 C 8.238281 -3.214844 8.976562 -2.570312 8.613281 -1.300781 L 8.75 -1.261719 L 9.75 -4.785156 L 9.613281 -4.824219 C 9.253906 -3.554688 8.304688 -3.390625 7.304688 -3.671875 L 5.121094 -4.292969 Z M 6.539062 -9.28125 "/></g></g></g><g fill="#f8ede6" fill-opacity="1"><g transform="translate(159.343838, 328.866411)"><g><path d="M 3.777344 -10.496094 L 3.757812 -10.34375 C 4.480469 -10.257812 4.933594 -10.09375 5.21875 -9.730469 L 1.933594 -1.929688 C 1.238281 -0.417969 0.882812 -0.0507812 0.171875 -0.136719 L 0.152344 0.0195312 L 3.175781 0.375 L 3.195312 0.222656 C 2.191406 0.101562 1.761719 -0.214844 1.863281 -1.078125 C 1.90625 -1.429688 2.035156 -1.886719 2.277344 -2.464844 L 2.742188 -3.488281 L 6.597656 -3.035156 L 6.863281 -1.46875 C 6.933594 -1.007812 6.953125 -0.628906 6.921875 -0.351562 C 6.832031 0.402344 6.371094 0.597656 5.429688 0.488281 L 5.410156 0.640625 L 10.824219 1.28125 L 10.839844 1.128906 C 10.085938 1.039062 9.867188 0.761719 9.6875 -0.355469 L 8.078125 -9.988281 Z M 6.558594 -3.226562 L 4.675781 -3.449219 C 3.703125 -3.5625 3.285156 -3.988281 3.371094 -4.699219 C 3.390625 -4.882812 3.449219 -5.09375 3.539062 -5.320312 L 5.324219 -9.59375 C 5.46875 -9.359375 5.558594 -9.066406 5.625 -8.683594 Z M 6.558594 -3.226562 "/></g></g></g><g fill="#f8ede6" fill-opacity="1"><g transform="translate(183.38339, 330.65103)"><g><path d="M -0.226562 -10.867188 L -0.222656 -10.710938 C 0.226562 -10.734375 0.542969 -10.667969 0.8125 -10.492188 L 1.222656 -1.203125 C 1.257812 -0.351562 1.109375 -0.203125 0.242188 -0.164062 L 0.25 -0.0117188 L 2.449219 -0.109375 L 2.445312 -0.261719 C 1.574219 -0.222656 1.414062 -0.355469 1.375 -1.210938 L 0.972656 -10.375 C 1.167969 -10.214844 1.347656 -10.003906 1.5625 -9.71875 L 7.753906 -0.339844 L 9.816406 -0.429688 L 9.394531 -10.109375 C 9.355469 -10.976562 9.488281 -11.140625 10.355469 -11.175781 L 10.347656 -11.332031 L 8.179688 -11.238281 L 8.183594 -11.082031 C 9.054688 -11.121094 9.214844 -10.972656 9.253906 -10.101562 L 9.59375 -2.378906 L 3.898438 -11.050781 Z M -0.226562 -10.867188 "/></g></g></g><g fill="#f8ede6" fill-opacity="1"><g transform="translate(207.354499, 328.467594)"><g><path d="M -1.75 -10.730469 L -1.71875 -10.574219 C -0.988281 -10.710938 -0.84375 -10.613281 -0.707031 -9.882812 L 0.910156 -1.210938 C 1.046875 -0.480469 0.949219 -0.335938 0.214844 -0.199219 L 0.246094 -0.046875 L 4.546875 -0.847656 L 4.519531 -1 C 3.785156 -0.863281 3.640625 -0.964844 3.503906 -1.695312 L 1.886719 -10.363281 C 1.75 -11.097656 1.851562 -11.242188 2.582031 -11.378906 L 2.554688 -11.53125 Z M -1.75 -10.730469 "/></g></g></g><g fill="#f8ede6" fill-opacity="1"><g transform="translate(224.773529, 324.494417)"><g><path d="M 0.175781 -11.351562 L 1.945312 -11.941406 C 4.386719 -12.753906 5.808594 -12.378906 6.484375 -10.34375 L 6.648438 -10.398438 L 5.664062 -13.34375 L 0.125 -11.496094 L -3.203125 -10.386719 L -3.152344 -10.242188 C -2.445312 -10.476562 -2.273438 -10.402344 -2.039062 -9.695312 L 0.75 -1.332031 C 0.988281 -0.625 0.894531 -0.460938 0.1875 -0.226562 L 0.234375 -0.078125 L 3.5625 -1.1875 L 9.101562 -3.035156 L 8.121094 -5.980469 L 7.957031 -5.925781 C 8.636719 -3.894531 7.726562 -2.738281 5.28125 -1.925781 L 3.515625 -1.335938 L 1.875 -6.253906 L 4.023438 -6.972656 C 4.996094 -7.296875 5.96875 -7.179688 6.386719 -5.925781 L 6.519531 -5.96875 L 5.359375 -9.445312 L 5.226562 -9.402344 C 5.644531 -8.148438 4.953125 -7.476562 3.964844 -7.148438 L 1.816406 -6.429688 Z M 0.175781 -11.351562 "/></g></g></g><g fill="#f8ede6" fill-opacity="1"><g transform="translate(246.34372, 316.169292)"><g/></g></g><g fill="#f8ede6" fill-opacity="1"><g transform="translate(261.670201, 307.860859)"><g><path d="M -2.980469 -11.105469 L -3.726562 -10.601562 L -5.886719 -9.136719 L -5.800781 -9.007812 C -5.183594 -9.425781 -5.011719 -9.394531 -4.59375 -8.777344 L 0.351562 -1.476562 C 0.769531 -0.859375 0.734375 -0.6875 0.117188 -0.269531 L 0.207031 -0.140625 L 2.367188 -1.601562 L 3.109375 -2.105469 L 5.320312 -3.601562 C 7.25 -4.910156 7.78125 -6.394531 6.527344 -8.246094 C 5.492188 -9.773438 4.238281 -10.105469 2.746094 -9.433594 C 3.675781 -10.382812 3.5625 -11.464844 2.976562 -12.328125 C 2.273438 -13.367188 1.082031 -13.855469 -0.460938 -12.8125 Z M -2.894531 -10.976562 L -2.035156 -11.558594 C -1.03125 -12.238281 -0.164062 -12.261719 0.792969 -10.847656 C 1.664062 -9.5625 1.394531 -8.628906 0.417969 -7.96875 L -0.457031 -7.378906 Z M -0.371094 -7.25 L 0.503906 -7.839844 C 2.019531 -8.867188 3.265625 -8.359375 4.34375 -6.765625 C 5.421875 -5.171875 5.414062 -3.855469 3.898438 -2.828125 L 3.023438 -2.234375 Z M -0.371094 -7.25 "/></g></g></g><g fill="#f8ede6" fill-opacity="1"><g transform="translate(280.698797, 293.735452)"><g><path d="M -7.273438 -8.078125 L -7.167969 -7.964844 C -6.625 -8.476562 -6.449219 -8.472656 -5.9375 -7.929688 L -1.859375 -3.601562 C -0.0078125 -1.636719 2.195312 -1.855469 4.195312 -3.742188 C 6.320312 -5.742188 6.5 -7.769531 4.648438 -9.734375 L 0.570312 -14.0625 C 0.0585938 -14.605469 0.0742188 -14.792969 0.617188 -15.300781 L 0.511719 -15.414062 L -0.878906 -14.105469 L -0.773438 -13.992188 C -0.230469 -14.503906 -0.0429688 -14.507812 0.46875 -13.96875 L 4.546875 -9.640625 C 6.121094 -7.96875 5.898438 -6.285156 4.609375 -5.070312 C 3.207031 -3.75 1.617188 -3.761719 0.0625 -5.414062 L -4.015625 -9.738281 C -4.527344 -10.28125 -4.523438 -10.457031 -3.980469 -10.96875 L -4.085938 -11.082031 Z M -7.273438 -8.078125 "/></g></g></g><g fill="#f8ede6" fill-opacity="1"><g transform="translate(297.595102, 276.333904)"><g><path d="M -6.335938 -9.59375 L -6.882812 -8.878906 L -8.472656 -6.8125 L -8.347656 -6.714844 C -7.894531 -7.308594 -7.722656 -7.332031 -7.128906 -6.878906 L -0.132812 -1.511719 C 0.457031 -1.058594 0.480469 -0.882812 0.0273438 -0.292969 L 0.152344 -0.195312 L 1.738281 -2.265625 L 2.285156 -2.980469 L 3.910156 -5.101562 C 5.328125 -6.949219 5.363281 -8.523438 3.589844 -9.886719 C 2.125 -11.011719 0.828125 -10.925781 -0.375 -9.816406 C 0.207031 -11.011719 -0.242188 -12.003906 -1.070312 -12.636719 C -2.066406 -13.402344 -3.351562 -13.488281 -4.484375 -12.007812 Z M -6.214844 -9.5 L -5.582031 -10.324219 C -4.84375 -11.285156 -4.03125 -11.582031 -2.675781 -10.542969 C -1.441406 -9.597656 -1.402344 -8.628906 -2.121094 -7.691406 L -2.765625 -6.855469 Z M -2.640625 -6.761719 L -2 -7.597656 C -0.882812 -9.050781 0.457031 -8.960938 1.984375 -7.792969 C 3.511719 -6.621094 3.921875 -5.367188 2.804688 -3.914062 L 2.164062 -3.074219 Z M -2.640625 -6.761719 "/></g></g></g><g fill="#f8ede6" fill-opacity="1"><g transform="translate(311.174638, 256.923269)"><g><path d="M -7.773438 -8.472656 L -8.203125 -7.679688 L -9.441406 -5.386719 L -9.304688 -5.3125 C -8.953125 -5.96875 -8.78125 -6.019531 -8.128906 -5.664062 L -0.371094 -1.46875 C 0.285156 -1.117188 0.335938 -0.949219 -0.0195312 -0.292969 L 0.117188 -0.21875 L 1.359375 -2.511719 L 1.785156 -3.304688 L 3.054688 -5.652344 C 4.164062 -7.703125 3.949219 -9.265625 1.984375 -10.328125 C 0.359375 -11.207031 -0.910156 -10.921875 -1.921875 -9.632812 C -1.535156 -10.90625 -2.136719 -11.816406 -3.054688 -12.308594 C -4.160156 -12.90625 -5.441406 -12.789062 -6.328125 -11.148438 Z M -7.636719 -8.398438 L -7.144531 -9.3125 C -6.566406 -10.378906 -5.808594 -10.800781 -4.308594 -9.988281 C -2.941406 -9.25 -2.75 -8.296875 -3.3125 -7.261719 L -3.8125 -6.332031 Z M -3.675781 -6.257812 L -3.175781 -7.1875 C -2.304688 -8.796875 -0.964844 -8.921875 0.726562 -8.007812 C 2.421875 -7.089844 3.023438 -5.917969 2.152344 -4.308594 L 1.648438 -3.378906 Z M -3.675781 -6.257812 "/></g></g></g><g fill="#f8ede6" fill-opacity="1"><g transform="translate(321.495094, 235.616463)"><g><path d="M -10.164062 -3.855469 L -10.015625 -3.804688 C -9.769531 -4.507812 -9.609375 -4.582031 -8.90625 -4.335938 L -0.59375 -1.394531 C 0.109375 -1.148438 0.183594 -0.988281 -0.0625 -0.285156 L 0.0820312 -0.234375 L 1.023438 -2.898438 L 1.253906 -3.542969 L 3.199219 -9.046875 L 0.269531 -10.082031 L 0.21875 -9.933594 C 2.238281 -9.21875 2.582031 -7.765625 1.722656 -5.335938 L 1.105469 -3.59375 L -8.027344 -6.824219 C -8.730469 -7.070312 -8.804688 -7.230469 -8.558594 -7.933594 L -8.703125 -7.984375 Z M -10.164062 -3.855469 "/></g></g></g><g fill="#f8ede6" fill-opacity="1"><g transform="translate(328.146086, 213.839113)"><g><path d="M -9.832031 -5.671875 L -9.488281 -7.503906 C -9.011719 -10.035156 -7.992188 -11.089844 -5.886719 -10.695312 L -5.855469 -10.863281 L -8.90625 -11.4375 L -9.984375 -5.699219 L -10.113281 -5.027344 L -10.632812 -2.253906 L -10.480469 -2.222656 C -10.34375 -2.957031 -10.195312 -3.070312 -9.464844 -2.933594 L -0.796875 -1.304688 C -0.0664062 -1.164062 0.03125 -1.003906 -0.105469 -0.273438 L 0.046875 -0.242188 L 0.566406 -3.019531 L 0.695312 -3.691406 L 1.773438 -9.429688 L -1.277344 -10.003906 L -1.308594 -9.835938 C 0.796875 -9.4375 1.363281 -8.085938 0.886719 -5.550781 L 0.542969 -3.722656 L -4.554688 -4.679688 L -4.136719 -6.90625 C -3.945312 -7.914062 -3.371094 -8.707031 -2.074219 -8.460938 L -2.046875 -8.597656 L -5.648438 -9.277344 L -5.675781 -9.140625 C -4.378906 -8.894531 -4.125 -7.964844 -4.320312 -6.941406 L -4.738281 -4.714844 Z M -9.832031 -5.671875 "/></g></g></g><g fill="#f8ede6" fill-opacity="1"><g transform="translate(331.432062, 190.864328)"><g><path d="M -10.84375 -6.03125 C -10.894531 -4.371094 -10.742188 -3.214844 -10.300781 -2.425781 C -9.832031 -1.558594 -9.035156 -1.175781 -8.042969 -1.144531 C -6.242188 -1.089844 -5.25 -1.992188 -4.015625 -4.78125 C -3.210938 -6.808594 -2.699219 -7.242188 -1.675781 -7.210938 C -0.558594 -7.175781 0.1875 -6.191406 0.128906 -4.238281 C 0.0742188 -2.484375 -0.457031 -1.363281 -1.367188 -0.988281 C -1.082031 -1.199219 -0.945312 -1.535156 -0.9375 -1.890625 C -0.917969 -2.511719 -1.269531 -3.160156 -2.140625 -3.1875 C -3.007812 -3.214844 -3.414062 -2.589844 -3.433594 -1.96875 C -3.457031 -1.222656 -2.960938 -0.710938 -2.214844 -0.6875 C -0.726562 -0.644531 0.214844 -1.949219 0.285156 -4.230469 C 0.34375 -6.15625 0.148438 -7.464844 -0.335938 -8.304688 C -0.839844 -9.175781 -1.632812 -9.554688 -2.628906 -9.585938 C -4.441406 -9.640625 -5.210938 -8.855469 -6.527344 -5.945312 C -7.234375 -4.136719 -7.925781 -3.457031 -8.996094 -3.488281 C -10.269531 -3.527344 -10.734375 -4.582031 -10.6875 -6.027344 C -10.644531 -7.4375 -10.269531 -8.546875 -9.496094 -8.988281 C -9.75 -8.777344 -9.914062 -8.472656 -9.925781 -8.132812 C -9.949219 -7.386719 -9.390625 -6.871094 -8.707031 -6.851562 C -7.960938 -6.828125 -7.449219 -7.308594 -7.425781 -8.054688 C -7.40625 -8.800781 -7.886719 -9.328125 -8.628906 -9.351562 C -10.058594 -9.394531 -10.785156 -7.972656 -10.84375 -6.03125 Z M -10.84375 -6.03125 "/></g></g></g></svg>