<svg xmlns="http://www.w3.org/2000/svg" xmlns:xlink="http://www.w3.org/1999/xlink" width="500" zoomAndPan="magnify" viewBox="0 0 375 374.999991" height="500" preserveAspectRatio="xMidYMid meet" version="1.0"><defs><clipPath id="ba3bef4929"><path d="M 216.835938 82.851562 L 260.335938 82.851562 L 260.335938 126.351562 L 216.835938 126.351562 Z M 216.835938 82.851562 " clip-rule="nonzero"/></clipPath><clipPath id="0373d8f4d7"><path d="M 196.03125 71.574219 L 218.53125 71.574219 L 218.53125 94.074219 L 196.03125 94.074219 Z M 196.03125 71.574219 " clip-rule="nonzero"/></clipPath></defs><g clip-path="url(#ba3bef4929)"><path fill="#ffffff" d="M 260.054688 104.460938 C 241.527344 106.164062 240.152344 107.550781 238.445312 126.070312 C 236.742188 107.550781 235.363281 106.164062 216.835938 104.460938 C 235.363281 102.757812 236.742188 101.378906 238.445312 82.851562 C 240.152344 101.378906 241.539062 102.757812 260.054688 104.460938 Z M 260.054688 104.460938 " fill-opacity="1" fill-rule="nonzero"/></g><g clip-path="url(#0373d8f4d7)"><path fill="#f2a9b6" d="M 218.578125 82.847656 C 208.910156 83.738281 208.191406 84.460938 207.304688 94.121094 C 206.414062 84.460938 205.695312 83.738281 196.03125 82.847656 C 205.695312 81.960938 206.414062 81.242188 207.304688 71.574219 C 208.191406 81.242188 208.917969 81.960938 218.578125 82.847656 Z M 218.578125 82.847656 " fill-opacity="1" fill-rule="nonzero"/></g></svg>