<svg xmlns="http://www.w3.org/2000/svg" xmlns:xlink="http://www.w3.org/1999/xlink" width="500" zoomAndPan="magnify" viewBox="0 0 375 374.999991" height="500" preserveAspectRatio="xMidYMid meet" version="1.0"><defs><clipPath id="832d70796f"><path d="M 108.316406 247.277344 L 150.316406 247.277344 L 150.316406 289.277344 L 108.316406 289.277344 Z M 108.316406 247.277344 " clip-rule="nonzero"/></clipPath><clipPath id="428f66d58e"><path d="M 150.476562 289.433594 L 173.726562 289.433594 L 173.726562 312.683594 L 150.476562 312.683594 Z M 150.476562 289.433594 " clip-rule="nonzero"/></clipPath></defs><g clip-path="url(#832d70796f)"><path fill="#f2a9b6" d="M 150.46875 268.355469 C 132.398438 270.015625 131.054688 271.367188 129.394531 289.429688 C 127.730469 271.367188 126.386719 270.015625 108.316406 268.355469 C 126.386719 266.691406 127.730469 265.347656 129.394531 247.277344 C 131.054688 265.347656 132.410156 266.691406 150.46875 268.355469 Z M 150.46875 268.355469 " fill-opacity="1" fill-rule="nonzero"/></g><g clip-path="url(#428f66d58e)"><path fill="#ffffff" d="M 173.480469 300.9375 C 163.617188 301.84375 162.882812 302.582031 161.976562 312.4375 C 161.070312 302.582031 160.335938 301.84375 150.476562 300.9375 C 160.335938 300.03125 161.070312 299.296875 161.976562 289.433594 C 162.882812 299.296875 163.621094 300.03125 173.480469 300.9375 Z M 173.480469 300.9375 " fill-opacity="1" fill-rule="nonzero"/></g></svg>